<svg width="1503" height="376" viewBox="0 0 1503 376" fill="none" xmlns="http://www.w3.org/2000/svg">
<g filter="url(#filter0_d_17_225)">
<rect x="15.9999" y="21" width="347" height="347" fill="#888C81"/>
</g>
<rect x="347" y="21" width="32" height="347" fill="#666962"/>
<rect x="15.9999" y="21" width="32" height="347" fill="#ABAFA4"/>
<rect x="15.9999" y="368" width="32" height="347" transform="rotate(-90 15.9999 368)" fill="#666962"/>
<rect x="15.9999" y="37" width="32" height="363" transform="rotate(-90 15.9999 37)" fill="#ABAFA4"/>
<path d="M48 336L15.9999 368L15.9999 336L48 336Z" fill="#ABAFA4"/>
<path d="M347 36.9998L379 5L379 36.9998L347 36.9998Z" fill="#666962"/>
<g filter="url(#filter1_d_17_225)">
<rect x="569.733" y="20.5654" width="347" height="347" fill="#888C81"/>
</g>
<rect x="900.733" y="20.5654" width="32" height="347" fill="#666962"/>
<rect x="569.733" y="20.5654" width="32" height="347" fill="#ABAFA4"/>
<rect x="569.733" y="367.565" width="32" height="347" transform="rotate(-90 569.733 367.565)" fill="#666962"/>
<rect x="569.733" y="36.5654" width="32" height="363" transform="rotate(-90 569.733 36.5654)" fill="#ABAFA4"/>
<path d="M601.733 335.565L569.733 367.565L569.733 335.565L601.733 335.565Z" fill="#ABAFA4"/>
<path d="M900.733 36.5652L932.733 4.56543L932.733 36.5653L900.733 36.5652Z" fill="#666962"/>
<g filter="url(#filter2_d_17_225)">
<rect x="1123.73" y="18.5654" width="347" height="347" fill="#888C81"/>
</g>
<rect x="1454.73" y="18.5654" width="32" height="347" fill="#666962"/>
<rect x="1123.73" y="18.5654" width="32" height="347" fill="#ABAFA4"/>
<rect x="1123.73" y="365.565" width="32" height="347" transform="rotate(-90 1123.73 365.565)" fill="#666962"/>
<rect x="1123.73" y="34.5654" width="32" height="363" transform="rotate(-90 1123.73 34.5654)" fill="#ABAFA4"/>
<path d="M1155.73 333.565L1123.73 365.565L1123.73 333.565L1155.73 333.565Z" fill="#ABAFA4"/>
<path d="M1454.73 34.5652L1486.73 2.56543L1486.73 34.5653L1454.73 34.5652Z" fill="#666962"/>
<defs>
<filter id="filter0_d_17_225" x="11.9999" y="21" width="355" height="355" filterUnits="userSpaceOnUse" color-interpolation-filters="sRGB">
<feFlood flood-opacity="0" result="BackgroundImageFix"/>
<feColorMatrix in="SourceAlpha" type="matrix" values="0 0 0 0 0 0 0 0 0 0 0 0 0 0 0 0 0 0 127 0" result="hardAlpha"/>
<feOffset dy="4"/>
<feGaussianBlur stdDeviation="2"/>
<feComposite in2="hardAlpha" operator="out"/>
<feColorMatrix type="matrix" values="0 0 0 0 0 0 0 0 0 0 0 0 0 0 0 0 0 0 0.25 0"/>
<feBlend mode="normal" in2="BackgroundImageFix" result="effect1_dropShadow_17_225"/>
<feBlend mode="normal" in="SourceGraphic" in2="effect1_dropShadow_17_225" result="shape"/>
</filter>
<filter id="filter1_d_17_225" x="565.733" y="20.5654" width="355" height="355" filterUnits="userSpaceOnUse" color-interpolation-filters="sRGB">
<feFlood flood-opacity="0" result="BackgroundImageFix"/>
<feColorMatrix in="SourceAlpha" type="matrix" values="0 0 0 0 0 0 0 0 0 0 0 0 0 0 0 0 0 0 127 0" result="hardAlpha"/>
<feOffset dy="4"/>
<feGaussianBlur stdDeviation="2"/>
<feComposite in2="hardAlpha" operator="out"/>
<feColorMatrix type="matrix" values="0 0 0 0 0 0 0 0 0 0 0 0 0 0 0 0 0 0 0.25 0"/>
<feBlend mode="normal" in2="BackgroundImageFix" result="effect1_dropShadow_17_225"/>
<feBlend mode="normal" in="SourceGraphic" in2="effect1_dropShadow_17_225" result="shape"/>
</filter>
<filter id="filter2_d_17_225" x="1119.73" y="18.5654" width="355" height="355" filterUnits="userSpaceOnUse" color-interpolation-filters="sRGB">
<feFlood flood-opacity="0" result="BackgroundImageFix"/>
<feColorMatrix in="SourceAlpha" type="matrix" values="0 0 0 0 0 0 0 0 0 0 0 0 0 0 0 0 0 0 127 0" result="hardAlpha"/>
<feOffset dy="4"/>
<feGaussianBlur stdDeviation="2"/>
<feComposite in2="hardAlpha" operator="out"/>
<feColorMatrix type="matrix" values="0 0 0 0 0 0 0 0 0 0 0 0 0 0 0 0 0 0 0.25 0"/>
<feBlend mode="normal" in2="BackgroundImageFix" result="effect1_dropShadow_17_225"/>
<feBlend mode="normal" in="SourceGraphic" in2="effect1_dropShadow_17_225" result="shape"/>
</filter>
</defs>
</svg>
