<svg width="985" height="716" viewBox="0 0 985 716" fill="none" xmlns="http://www.w3.org/2000/svg">
<g clip-path="url(#clip0_14_74)">
<path d="M573.664 126.764C592.097 126.764 607.04 111.821 607.04 93.3881C607.04 74.9551 592.097 60.0122 573.664 60.0122C555.231 60.0122 540.288 74.9551 540.288 93.3881C540.288 111.821 555.231 126.764 573.664 126.764Z" fill="#F2F2F2"/>
<path d="M832.572 622.101C882.181 584.315 905.876 520.819 891.042 460.248C890.673 458.743 890.284 457.242 889.875 455.743C880.041 419.789 855.71 385.618 820.25 374.129C790.475 364.483 757.975 371.901 726.913 368.065C665.936 360.535 618.662 311.197 585.399 259.541C552.136 207.884 526.572 150.062 482.372 107.386C409.516 37.0414 290.67 21.8963 200.339 67.6851C110.008 113.474 52.4683 215.061 54.9222 316.304C57.3762 417.548 117.48 514.344 204.766 565.7C236.831 584.567 273.918 597.932 310.826 593.255C342.851 589.197 371.95 571.989 403.824 566.881C453.938 558.849 503.733 581.507 547.078 607.91C590.422 634.314 632.29 665.61 681.546 677.851C729.373 689.737 788.625 655.574 832.572 622.101Z" fill="#B4BAAB"/>
<path d="M761.295 69.8111C760.208 69.0861 759.108 68.3986 758.02 67.6986C726.584 47.5934 692.889 31.26 657.633 19.0361L649.458 131.811H597.633V2.57363C594.37 1.89863 591.083 1.26113 587.795 0.661133V131.811H526.208C492.303 131.811 459.787 118.343 435.813 94.3685C411.839 70.3943 398.37 37.8784 398.37 3.97378C395.07 4.68628 391.795 5.44867 388.52 6.26117V131.811H338.358L330.57 24.2737C294.338 38.169 259.942 56.4421 228.145 78.6862C227.595 79.0612 227.045 79.4487 226.508 79.8237C223.745 81.7612 221.02 83.7362 218.308 85.7362V515.974H366.145L363.533 479.786L349.158 281.099H638.645L624.27 479.786L621.658 515.974H767.858V74.1612C765.683 72.6862 763.495 71.2362 761.295 69.8111ZM388.52 248.286H346.783L339.07 141.661H388.52V248.286ZM587.795 248.286H517.695V246.174C517.695 245.158 517.495 244.153 517.106 243.215C516.717 242.276 516.147 241.424 515.428 240.707C514.71 239.989 513.856 239.42 512.918 239.033C511.979 238.646 510.973 238.447 509.958 238.449H479.483C478.468 238.448 477.463 238.648 476.526 239.036C475.589 239.424 474.737 239.993 474.019 240.71C473.302 241.428 472.733 242.28 472.345 243.217C471.957 244.154 471.757 245.159 471.758 246.174V248.286H398.37V141.661H587.795V248.286ZM597.633 248.286V141.661H648.745L641.033 248.286H597.633Z" fill="#3F3D56"/>
<path d="M0.762695 543.525C11.6218 556.392 23.3671 568.484 35.9127 579.712L949.138 580.962C961.683 569.734 973.429 557.642 984.288 544.775L0.762695 543.525Z" fill="#3F3D56"/>
<path d="M620.049 427.65V534.78C620.05 536.146 620.593 537.455 621.559 538.42C622.524 539.385 623.833 539.928 625.198 539.929H783.954C785.319 539.928 786.628 539.385 787.593 538.42C788.559 537.455 789.102 536.146 789.103 534.78V427.65C789.099 426.286 788.556 424.979 787.591 424.015C786.626 423.051 785.318 422.509 783.954 422.507H625.198C623.834 422.509 622.526 423.051 621.561 424.015C620.596 424.979 620.053 426.286 620.049 427.65Z" fill="#3F3D56"/>
<path d="M623.774 428.983V533.459C623.775 534.188 624.065 534.887 624.581 535.403C625.097 535.919 625.796 536.209 626.526 536.211H782.632C783.362 536.209 784.061 535.919 784.577 535.403C785.093 534.887 785.383 534.188 785.384 533.459V428.983C785.384 428.253 785.094 427.553 784.579 427.036C784.063 426.519 783.363 426.227 782.632 426.226H626.526C625.795 426.227 625.096 426.519 624.58 427.036C624.064 427.553 623.774 428.253 623.774 428.983Z" fill="#2C1943"/>
<path d="M616.73 555.674C617.021 556.038 617.39 556.332 617.811 556.534C618.232 556.735 618.693 556.838 619.159 556.836H789.149C789.614 556.835 790.073 556.731 790.492 556.531C790.912 556.331 791.282 556.039 791.574 555.678C791.867 555.317 792.076 554.895 792.185 554.444C792.295 553.992 792.302 553.521 792.207 553.066L789.568 540.532C789.458 540.021 789.223 539.545 788.883 539.148C788.543 538.752 788.109 538.446 787.62 538.26C787.267 538.121 786.89 538.05 786.51 538.051H621.787C621.407 538.05 621.031 538.121 620.677 538.26C620.189 538.446 619.755 538.752 619.415 539.148C619.074 539.545 618.839 540.021 618.73 540.532L616.091 553.066C615.997 553.521 616.006 553.991 616.116 554.442C616.227 554.893 616.436 555.314 616.73 555.674Z" fill="#2F2E41"/>
<path d="M780.677 543.449H784.692C785.029 543.449 785.302 543.176 785.302 542.839V540.918C785.302 540.581 785.029 540.308 784.692 540.308H780.677C780.34 540.308 780.067 540.581 780.067 540.918V542.839C780.067 543.176 780.34 543.449 780.677 543.449Z" fill="#3F3D56"/>
<path d="M770.206 543.449H774.221C774.558 543.449 774.832 543.176 774.832 542.839V540.918C774.832 540.581 774.558 540.308 774.221 540.308H770.206C769.869 540.308 769.596 540.581 769.596 540.918V542.839C769.596 543.176 769.869 543.449 770.206 543.449Z" fill="#3F3D56"/>
<path d="M759.735 543.449H763.75C764.087 543.449 764.36 543.176 764.36 542.839V540.918C764.36 540.581 764.087 540.308 763.75 540.308H759.735C759.398 540.308 759.124 540.581 759.124 540.918V542.839C759.124 543.176 759.398 543.449 759.735 543.449Z" fill="#3F3D56"/>
<path d="M749.263 543.449H753.278C753.615 543.449 753.889 543.176 753.889 542.839V540.918C753.889 540.581 753.615 540.308 753.278 540.308H749.263C748.926 540.308 748.653 540.581 748.653 540.918V542.839C748.653 543.176 748.926 543.449 749.263 543.449Z" fill="#3F3D56"/>
<path d="M738.792 543.449H742.807C743.144 543.449 743.417 543.176 743.417 542.839V540.918C743.417 540.581 743.144 540.308 742.807 540.308H738.792C738.455 540.308 738.182 540.581 738.182 540.918V542.839C738.182 543.176 738.455 543.449 738.792 543.449Z" fill="#3F3D56"/>
<path d="M728.321 543.449H732.336C732.673 543.449 732.946 543.176 732.946 542.839V540.918C732.946 540.581 732.673 540.308 732.336 540.308H728.321C727.984 540.308 727.711 540.581 727.711 540.918V542.839C727.711 543.176 727.984 543.449 728.321 543.449Z" fill="#3F3D56"/>
<path d="M717.849 543.449H721.864C722.201 543.449 722.475 543.176 722.475 542.839V540.918C722.475 540.581 722.201 540.308 721.864 540.308H717.849C717.512 540.308 717.239 540.581 717.239 540.918V542.839C717.239 543.176 717.512 543.449 717.849 543.449Z" fill="#3F3D56"/>
<path d="M707.378 543.449H711.393C711.73 543.449 712.003 543.176 712.003 542.839V540.918C712.003 540.581 711.73 540.308 711.393 540.308H707.378C707.041 540.308 706.768 540.581 706.768 540.918V542.839C706.768 543.176 707.041 543.449 707.378 543.449Z" fill="#3F3D56"/>
<path d="M696.907 543.449H700.923C701.26 543.449 701.533 543.176 701.533 542.839V540.918C701.533 540.581 701.26 540.308 700.923 540.308H696.907C696.57 540.308 696.297 540.581 696.297 540.918V542.839C696.297 543.176 696.57 543.449 696.907 543.449Z" fill="#3F3D56"/>
<path d="M686.436 543.449H690.451C690.788 543.449 691.062 543.176 691.062 542.839V540.918C691.062 540.581 690.788 540.308 690.451 540.308H686.436C686.099 540.308 685.826 540.581 685.826 540.918V542.839C685.826 543.176 686.099 543.449 686.436 543.449Z" fill="#3F3D56"/>
<path d="M675.965 543.449H679.98C680.317 543.449 680.59 543.176 680.59 542.839V540.918C680.59 540.581 680.317 540.308 679.98 540.308H675.965C675.628 540.308 675.355 540.581 675.355 540.918V542.839C675.355 543.176 675.628 543.449 675.965 543.449Z" fill="#3F3D56"/>
<path d="M665.494 543.449H669.509C669.846 543.449 670.119 543.176 670.119 542.839V540.918C670.119 540.581 669.846 540.308 669.509 540.308H665.494C665.157 540.308 664.883 540.581 664.883 540.918V542.839C664.883 543.176 665.157 543.449 665.494 543.449Z" fill="#3F3D56"/>
<path d="M655.023 543.449H659.038C659.375 543.449 659.648 543.176 659.648 542.839V540.918C659.648 540.581 659.375 540.308 659.038 540.308H655.023C654.686 540.308 654.412 540.581 654.412 540.918V542.839C654.412 543.176 654.686 543.449 655.023 543.449Z" fill="#3F3D56"/>
<path d="M644.551 543.449H648.566C648.904 543.449 649.177 543.176 649.177 542.839V540.918C649.177 540.581 648.904 540.308 648.566 540.308H644.551C644.214 540.308 643.941 540.581 643.941 540.918V542.839C643.941 543.176 644.214 543.449 644.551 543.449Z" fill="#3F3D56"/>
<path d="M634.08 543.449H638.095C638.432 543.449 638.706 543.176 638.706 542.839V540.918C638.706 540.581 638.432 540.308 638.095 540.308H634.08C633.743 540.308 633.47 540.581 633.47 540.918V542.839C633.47 543.176 633.743 543.449 634.08 543.449Z" fill="#3F3D56"/>
<path d="M623.609 543.449H627.624C627.961 543.449 628.234 543.176 628.234 542.839V540.918C628.234 540.581 627.961 540.308 627.624 540.308H623.609C623.272 540.308 622.999 540.581 622.999 540.918V542.839C622.999 543.176 623.272 543.449 623.609 543.449Z" fill="#3F3D56"/>
<path d="M780.801 548.685H784.816C785.153 548.685 785.426 548.412 785.426 548.075V546.154C785.426 545.817 785.153 545.543 784.816 545.543H780.801C780.464 545.543 780.191 545.817 780.191 546.154V548.075C780.191 548.412 780.464 548.685 780.801 548.685Z" fill="#3F3D56"/>
<path d="M770.33 548.685H774.345C774.682 548.685 774.955 548.412 774.955 548.075V546.154C774.955 545.817 774.682 545.543 774.345 545.543H770.33C769.993 545.543 769.719 545.817 769.719 546.154V548.075C769.719 548.412 769.993 548.685 770.33 548.685Z" fill="#3F3D56"/>
<path d="M759.859 548.685H763.874C764.211 548.685 764.484 548.412 764.484 548.075V546.154C764.484 545.817 764.211 545.543 763.874 545.543H759.859C759.522 545.543 759.249 545.817 759.249 546.154V548.075C759.249 548.412 759.522 548.685 759.859 548.685Z" fill="#3F3D56"/>
<path d="M749.387 548.685H753.402C753.74 548.685 754.013 548.412 754.013 548.075V546.154C754.013 545.817 753.74 545.543 753.402 545.543H749.387C749.05 545.543 748.777 545.817 748.777 546.154V548.075C748.777 548.412 749.05 548.685 749.387 548.685Z" fill="#3F3D56"/>
<path d="M738.916 548.685H742.931C743.268 548.685 743.541 548.412 743.541 548.075V546.154C743.541 545.817 743.268 545.543 742.931 545.543H738.916C738.579 545.543 738.305 545.817 738.305 546.154V548.075C738.305 548.412 738.579 548.685 738.916 548.685Z" fill="#3F3D56"/>
<path d="M728.444 548.685H732.46C732.797 548.685 733.07 548.412 733.07 548.075V546.154C733.07 545.817 732.797 545.543 732.46 545.543H728.444C728.107 545.543 727.834 545.817 727.834 546.154V548.075C727.834 548.412 728.107 548.685 728.444 548.685Z" fill="#3F3D56"/>
<path d="M717.973 548.685H721.988C722.325 548.685 722.599 548.412 722.599 548.075V546.154C722.599 545.817 722.325 545.543 721.988 545.543H717.973C717.636 545.543 717.363 545.817 717.363 546.154V548.075C717.363 548.412 717.636 548.685 717.973 548.685Z" fill="#3F3D56"/>
<path d="M707.503 548.685H711.518C711.855 548.685 712.128 548.412 712.128 548.075V546.154C712.128 545.817 711.855 545.543 711.518 545.543H707.503C707.166 545.543 706.892 545.817 706.892 546.154V548.075C706.892 548.412 707.166 548.685 707.503 548.685Z" fill="#3F3D56"/>
<path d="M697.031 548.685H701.046C701.383 548.685 701.656 548.412 701.656 548.075V546.154C701.656 545.817 701.383 545.543 701.046 545.543H697.031C696.694 545.543 696.421 545.817 696.421 546.154V548.075C696.421 548.412 696.694 548.685 697.031 548.685Z" fill="#3F3D56"/>
<path d="M686.56 548.685H690.575C690.912 548.685 691.186 548.412 691.186 548.075V546.154C691.186 545.817 690.912 545.543 690.575 545.543H686.56C686.223 545.543 685.95 545.817 685.95 546.154V548.075C685.95 548.412 686.223 548.685 686.56 548.685Z" fill="#3F3D56"/>
<path d="M676.089 548.685H680.104C680.441 548.685 680.714 548.412 680.714 548.075V546.154C680.714 545.817 680.441 545.543 680.104 545.543H676.089C675.752 545.543 675.478 545.817 675.478 546.154V548.075C675.478 548.412 675.752 548.685 676.089 548.685Z" fill="#3F3D56"/>
<path d="M665.617 548.685H669.632C669.969 548.685 670.243 548.412 670.243 548.075V546.154C670.243 545.817 669.969 545.543 669.632 545.543H665.617C665.28 545.543 665.007 545.817 665.007 546.154V548.075C665.007 548.412 665.28 548.685 665.617 548.685Z" fill="#3F3D56"/>
<path d="M655.146 548.685H659.161C659.498 548.685 659.771 548.412 659.771 548.075V546.154C659.771 545.817 659.498 545.543 659.161 545.543H655.146C654.809 545.543 654.536 545.817 654.536 546.154V548.075C654.536 548.412 654.809 548.685 655.146 548.685Z" fill="#3F3D56"/>
<path d="M644.675 548.685H648.69C649.027 548.685 649.3 548.412 649.3 548.075V546.154C649.3 545.817 649.027 545.543 648.69 545.543H644.675C644.338 545.543 644.065 545.817 644.065 546.154V548.075C644.065 548.412 644.338 548.685 644.675 548.685Z" fill="#3F3D56"/>
<path d="M634.204 548.685H638.219C638.556 548.685 638.829 548.412 638.829 548.075V546.154C638.829 545.817 638.556 545.543 638.219 545.543H634.204C633.867 545.543 633.594 545.817 633.594 546.154V548.075C633.594 548.412 633.867 548.685 634.204 548.685Z" fill="#3F3D56"/>
<path d="M623.733 548.685H627.748C628.085 548.685 628.358 548.412 628.358 548.075V546.154C628.358 545.817 628.085 545.543 627.748 545.543H623.733C623.395 545.543 623.122 545.817 623.122 546.154V548.075C623.122 548.412 623.395 548.685 623.733 548.685Z" fill="#3F3D56"/>
<path d="M693.889 554.968H734.554C734.891 554.968 735.164 554.694 735.164 554.357V552.436C735.164 552.099 734.891 551.826 734.554 551.826H693.889C693.552 551.826 693.279 552.099 693.279 552.436V554.357C693.279 554.694 693.552 554.968 693.889 554.968Z" fill="#3F3D56"/>
<path d="M650.807 449.083H647.252C646.174 449.083 645.301 449.956 645.301 451.034C645.301 452.112 646.174 452.985 647.252 452.985H650.807C651.884 452.985 652.758 452.112 652.758 451.034C652.758 449.956 651.884 449.083 650.807 449.083Z" fill="white"/>
<path d="M691.461 449.083H687.906C686.829 449.083 685.955 449.956 685.955 451.034C685.955 452.112 686.829 452.985 687.906 452.985H691.461C692.539 452.985 693.412 452.112 693.412 451.034C693.412 449.956 692.539 449.083 691.461 449.083Z" fill="white"/>
<path d="M702.98 449.083H699.425C698.347 449.083 697.474 449.956 697.474 451.034C697.474 452.112 698.347 452.985 699.425 452.985H702.98C704.057 452.985 704.931 452.112 704.931 451.034C704.931 449.956 704.057 449.083 702.98 449.083Z" fill="white"/>
<path d="M680.403 448.757H658.31C657.233 448.757 656.359 449.631 656.359 450.709C656.359 451.786 657.233 452.66 658.31 452.66H680.403C681.48 452.66 682.354 451.786 682.354 450.709C682.354 449.631 681.48 448.757 680.403 448.757Z" fill="white"/>
<path d="M734.608 448.757H712.515C711.438 448.757 710.564 449.631 710.564 450.708C710.564 451.786 711.438 452.66 712.515 452.66H734.608C735.685 452.66 736.559 451.786 736.559 450.708C736.559 449.631 735.685 448.757 734.608 448.757Z" fill="white"/>
<path d="M661.648 457.891H658.093C657.016 457.891 656.142 458.765 656.142 459.842C656.142 460.92 657.016 461.794 658.093 461.794H661.648C662.726 461.794 663.599 460.92 663.599 459.842C663.599 458.765 662.726 457.891 661.648 457.891Z" fill="white"/>
<path d="M702.302 457.891H698.747C697.67 457.891 696.796 458.765 696.796 459.842C696.796 460.92 697.67 461.794 698.747 461.794H702.302C703.38 461.794 704.253 460.92 704.253 459.842C704.253 458.765 703.38 457.891 702.302 457.891Z" fill="white"/>
<path d="M713.82 457.891H710.266C709.188 457.891 708.314 458.765 708.314 459.842C708.314 460.92 709.188 461.794 710.266 461.794H713.82C714.898 461.794 715.772 460.92 715.772 459.842C715.772 458.765 714.898 457.891 713.82 457.891Z" fill="white"/>
<path d="M691.244 457.565H669.152C668.074 457.565 667.2 458.439 667.2 459.517C667.2 460.595 668.074 461.468 669.152 461.468H691.244C692.322 461.468 693.195 460.595 693.195 459.517C693.195 458.439 692.322 457.565 691.244 457.565Z" fill="white"/>
<path d="M745.449 457.565H723.357C722.279 457.565 721.405 458.439 721.405 459.517C721.405 460.595 722.279 461.468 723.357 461.468H745.449C746.527 461.468 747.4 460.595 747.4 459.517C747.4 458.439 746.527 457.565 745.449 457.565Z" fill="white"/>
<path d="M672.489 466.699H668.934C667.857 466.699 666.983 467.573 666.983 468.651C666.983 469.728 667.857 470.602 668.934 470.602H672.489C673.567 470.602 674.44 469.728 674.44 468.651C674.44 467.573 673.567 466.699 672.489 466.699Z" fill="white"/>
<path d="M713.143 466.699H709.588C708.51 466.699 707.637 467.573 707.637 468.651C707.637 469.728 708.51 470.602 709.588 470.602H713.143C714.22 470.602 715.094 469.728 715.094 468.651C715.094 467.573 714.22 466.699 713.143 466.699Z" fill="white"/>
<path d="M724.661 466.699H721.107C720.029 466.699 719.155 467.573 719.155 468.651C719.155 469.728 720.029 470.602 721.107 470.602H724.661C725.739 470.602 726.613 469.728 726.613 468.651C726.613 467.573 725.739 466.699 724.661 466.699Z" fill="white"/>
<path d="M702.085 466.374H679.992C678.915 466.374 678.041 467.247 678.041 468.325C678.041 469.403 678.915 470.276 679.992 470.276H702.085C703.163 470.276 704.036 469.403 704.036 468.325C704.036 467.247 703.163 466.374 702.085 466.374Z" fill="white"/>
<path d="M756.29 466.374H734.197C733.12 466.374 732.246 467.247 732.246 468.325C732.246 469.403 733.12 470.276 734.197 470.276H756.29C757.368 470.276 758.241 469.403 758.241 468.325C758.241 467.247 757.368 466.374 756.29 466.374Z" fill="white"/>
<path d="M683.33 475.508H679.776C678.698 475.508 677.824 476.381 677.824 477.459C677.824 478.537 678.698 479.41 679.776 479.41H683.33C684.408 479.41 685.281 478.537 685.281 477.459C685.281 476.381 684.408 475.508 683.33 475.508Z" fill="white"/>
<path d="M723.984 475.508H720.429C719.351 475.508 718.478 476.381 718.478 477.459C718.478 478.537 719.351 479.41 720.429 479.41H723.984C725.061 479.41 725.935 478.537 725.935 477.459C725.935 476.381 725.061 475.508 723.984 475.508Z" fill="white"/>
<path d="M735.502 475.508H731.947C730.87 475.508 729.996 476.381 729.996 477.459C729.996 478.537 730.87 479.41 731.947 479.41H735.502C736.58 479.41 737.453 478.537 737.453 477.459C737.453 476.381 736.58 475.508 735.502 475.508Z" fill="white"/>
<path d="M712.926 475.182H690.834C689.756 475.182 688.882 476.056 688.882 477.133C688.882 478.211 689.756 479.085 690.834 479.085H712.926C714.004 479.085 714.877 478.211 714.877 477.133C714.877 476.056 714.004 475.182 712.926 475.182Z" fill="white"/>
<path d="M691.461 510.533H687.906C686.829 510.533 685.955 511.407 685.955 512.484C685.955 513.562 686.829 514.436 687.906 514.436H691.461C692.539 514.436 693.412 513.562 693.412 512.484C693.412 511.407 692.539 510.533 691.461 510.533Z" fill="white"/>
<path d="M702.98 510.533H699.425C698.347 510.533 697.474 511.407 697.474 512.484C697.474 513.562 698.347 514.436 699.425 514.436H702.98C704.057 514.436 704.931 513.562 704.931 512.484C704.931 511.407 704.057 510.533 702.98 510.533Z" fill="white"/>
<path d="M734.608 510.858H712.515C711.438 510.858 710.564 511.732 710.564 512.81C710.564 513.887 711.438 514.761 712.515 514.761H734.608C735.685 514.761 736.559 513.887 736.559 512.81C736.559 511.732 735.685 510.858 734.608 510.858Z" fill="white"/>
<path d="M650.807 510.533H647.252C646.174 510.533 645.301 511.407 645.301 512.485C645.301 513.562 646.174 514.436 647.252 514.436H650.807C651.884 514.436 652.758 513.562 652.758 512.485C652.758 511.407 651.884 510.533 650.807 510.533Z" fill="white"/>
<path d="M680.403 510.858H658.31C657.233 510.858 656.359 511.732 656.359 512.81C656.359 513.887 657.233 514.761 658.31 514.761H680.403C681.48 514.761 682.354 513.887 682.354 512.81C682.354 511.732 681.48 510.858 680.403 510.858Z" fill="white"/>
<path d="M661.648 501.725H658.093C657.016 501.725 656.142 502.598 656.142 503.676C656.142 504.754 657.016 505.628 658.093 505.628H661.648C662.726 505.628 663.599 504.754 663.599 503.676C663.599 502.598 662.726 501.725 661.648 501.725Z" fill="white"/>
<path d="M702.302 501.725H698.747C697.67 501.725 696.796 502.598 696.796 503.676C696.796 504.754 697.67 505.628 698.747 505.628H702.302C703.38 505.628 704.253 504.754 704.253 503.676C704.253 502.598 703.38 501.725 702.302 501.725Z" fill="white"/>
<path d="M713.82 501.725H710.266C709.188 501.725 708.314 502.598 708.314 503.676C708.314 504.754 709.188 505.627 710.266 505.627H713.82C714.898 505.627 715.772 504.754 715.772 503.676C715.772 502.598 714.898 501.725 713.82 501.725Z" fill="white"/>
<path d="M691.244 502.05H669.152C668.074 502.05 667.2 502.924 667.2 504.002C667.2 505.079 668.074 505.953 669.152 505.953H691.244C692.322 505.953 693.195 505.079 693.195 504.002C693.195 502.924 692.322 502.05 691.244 502.05Z" fill="white"/>
<path d="M672.489 492.917H668.934C667.857 492.917 666.983 493.79 666.983 494.868C666.983 495.946 667.857 496.819 668.934 496.819H672.489C673.567 496.819 674.44 495.946 674.44 494.868C674.44 493.79 673.567 492.917 672.489 492.917Z" fill="white"/>
<path d="M713.143 492.917H709.588C708.51 492.917 707.637 493.79 707.637 494.868C707.637 495.946 708.51 496.819 709.588 496.819H713.143C714.22 496.819 715.094 495.946 715.094 494.868C715.094 493.79 714.22 492.917 713.143 492.917Z" fill="white"/>
<path d="M724.661 492.917H721.107C720.029 492.917 719.155 493.79 719.155 494.868C719.155 495.946 720.029 496.819 721.107 496.819H724.661C725.739 496.819 726.613 495.946 726.613 494.868C726.613 493.79 725.739 492.917 724.661 492.917Z" fill="white"/>
<path d="M702.085 493.242H679.992C678.915 493.242 678.041 494.115 678.041 495.193C678.041 496.271 678.915 497.144 679.992 497.144H702.085C703.163 497.144 704.036 496.271 704.036 495.193C704.036 494.115 703.163 493.242 702.085 493.242Z" fill="white"/>
<path d="M683.33 484.108H679.776C678.698 484.108 677.824 484.982 677.824 486.06C677.824 487.137 678.698 488.011 679.776 488.011H683.33C684.408 488.011 685.281 487.137 685.281 486.06C685.281 484.982 684.408 484.108 683.33 484.108Z" fill="white"/>
<path d="M723.984 484.108H720.429C719.351 484.108 718.478 484.982 718.478 486.06C718.478 487.137 719.351 488.011 720.429 488.011H723.984C725.061 488.011 725.935 487.137 725.935 486.06C725.935 484.982 725.061 484.108 723.984 484.108Z" fill="white"/>
<path d="M735.502 484.108H731.947C730.87 484.108 729.996 484.982 729.996 486.06C729.996 487.137 730.87 488.011 731.947 488.011H735.502C736.58 488.011 737.453 487.137 737.453 486.06C737.453 484.982 736.58 484.108 735.502 484.108Z" fill="white"/>
<path d="M712.926 484.434H690.834C689.756 484.434 688.882 485.307 688.882 486.385C688.882 487.463 689.756 488.336 690.834 488.336H712.926C714.004 488.336 714.877 487.463 714.877 486.385C714.877 485.307 714.004 484.434 712.926 484.434Z" fill="white"/>
<path d="M631.909 613.763L615.222 587.386L667.6 545.633L689.219 521.681C692.028 518.57 695.604 516.25 699.59 514.953C703.576 513.656 707.833 513.429 711.935 514.293C716.037 515.156 719.84 517.082 722.965 519.876C726.09 522.67 728.426 526.236 729.741 530.216C731.69 536.115 731.271 542.539 728.573 548.134C725.874 553.73 721.108 558.058 715.279 560.205L681.093 572.799L631.909 613.763Z" fill="#EDB989"/>
<path d="M240.375 422.512V550.712H330.187V422.512C330.189 421.59 329.895 420.692 329.348 419.949C328.801 419.207 328.031 418.659 327.15 418.387C326.735 418.25 326.3 418.183 325.863 418.187H244.713C244.144 418.186 243.58 418.297 243.054 418.514C242.528 418.731 242.05 419.049 241.647 419.451C241.245 419.852 240.925 420.33 240.706 420.855C240.488 421.38 240.376 421.943 240.375 422.512ZM275.425 466.562C275.448 464.035 276.469 461.619 278.264 459.84C280.06 458.061 282.485 457.063 285.012 457.063C287.54 457.063 289.965 458.061 291.761 459.84C293.556 461.619 294.577 464.035 294.6 466.562V481.437C294.587 483.972 293.571 486.398 291.775 488.185C289.978 489.973 287.547 490.976 285.012 490.976C282.478 490.976 280.047 489.973 278.25 488.185C276.454 486.398 275.438 483.972 275.425 481.437V466.562Z" fill="#2F2E41"/>
<path d="M240.1 546.612V558.975C240.102 559.615 240.357 560.229 240.808 560.683C241.26 561.137 241.872 561.394 242.513 561.4H328.05C328.691 561.397 329.305 561.14 329.757 560.685C330.209 560.231 330.463 559.616 330.463 558.975V546.612H240.1Z" fill="#3F3D56"/>
<path d="M99.0869 229.362V463.437C99.0893 466.42 100.275 469.28 102.385 471.39C104.494 473.499 107.354 474.685 110.337 474.687H457.212C460.195 474.685 463.055 473.499 465.164 471.39C467.274 469.28 468.46 466.42 468.462 463.437V229.362C468.455 226.382 467.267 223.526 465.158 221.42C463.05 219.313 460.192 218.129 457.212 218.125H110.337C107.357 218.129 104.499 219.313 102.391 221.42C100.282 223.526 99.094 226.382 99.0869 229.362Z" fill="#3F3D56"/>
<path d="M107.225 232.275V460.55C107.228 462.143 107.862 463.671 108.989 464.798C110.116 465.925 111.644 466.559 113.238 466.562H454.325C455.919 466.559 457.447 465.925 458.574 464.798C459.7 463.671 460.335 462.143 460.338 460.55V232.275C460.337 230.679 459.704 229.148 458.577 228.019C457.45 226.889 455.921 226.253 454.325 226.25H113.238C111.642 226.253 110.113 226.889 108.986 228.019C107.858 229.148 107.225 230.679 107.225 232.275Z" fill="#B4BAAB"/>
<path d="M170.525 560.562C170.872 560.998 171.314 561.349 171.816 561.589C172.318 561.829 172.868 561.953 173.425 561.95H376.35C376.905 561.949 377.453 561.825 377.954 561.586C378.455 561.347 378.896 560.999 379.245 560.568C379.595 560.137 379.844 559.634 379.975 559.094C380.105 558.555 380.114 557.993 380 557.45L376.85 542.487C376.72 541.877 376.438 541.309 376.032 540.836C375.626 540.362 375.108 539.997 374.525 539.775C374.103 539.609 373.654 539.524 373.2 539.525H176.563C176.109 539.524 175.66 539.609 175.238 539.775C174.655 539.997 174.136 540.362 173.73 540.836C173.324 541.309 173.043 541.877 172.913 542.487L169.763 557.45C169.651 557.993 169.661 558.554 169.793 559.092C169.925 559.63 170.175 560.133 170.525 560.562Z" fill="#2F2E41"/>
<path d="M443.256 257.696H124.102C123.77 257.688 123.454 257.551 123.222 257.314C122.99 257.077 122.86 256.758 122.86 256.426C122.86 256.095 122.99 255.776 123.222 255.539C123.454 255.302 123.77 255.165 124.102 255.157H443.256C443.588 255.165 443.903 255.302 444.135 255.539C444.367 255.776 444.497 256.095 444.497 256.426C444.497 256.758 444.367 257.077 444.135 257.314C443.903 257.551 443.588 257.688 443.256 257.696Z" fill="#3F3D56"/>
<path d="M145.827 248.677C149.935 248.677 153.265 245.273 153.265 241.073C153.265 236.874 149.935 233.469 145.827 233.469C141.719 233.469 138.389 236.874 138.389 241.073C138.389 245.273 141.719 248.677 145.827 248.677Z" fill="#3F3D56"/>
<path d="M171.522 248.677C175.629 248.677 178.96 245.273 178.96 241.073C178.96 236.874 175.629 233.469 171.522 233.469C167.414 233.469 164.083 236.874 164.083 241.073C164.083 245.273 167.414 248.677 171.522 248.677Z" fill="#3F3D56"/>
<path d="M197.217 248.677C201.325 248.677 204.655 245.273 204.655 241.073C204.655 236.874 201.325 233.469 197.217 233.469C193.109 233.469 189.779 236.874 189.779 241.073C189.779 245.273 193.109 248.677 197.217 248.677Z" fill="#3F3D56"/>
<path d="M427.783 235.35H409.533C409.172 235.358 408.829 235.507 408.576 235.765C408.324 236.024 408.183 236.37 408.183 236.731C408.183 237.092 408.324 237.438 408.576 237.696C408.829 237.955 409.172 238.104 409.533 238.112H427.783C428.146 238.107 428.492 237.959 428.747 237.701C429.002 237.442 429.144 237.094 429.144 236.731C429.144 236.368 429.002 236.02 428.747 235.761C428.492 235.503 428.146 235.355 427.783 235.35Z" fill="#3F3D56"/>
<path d="M427.783 240.537H409.533C409.172 240.545 408.828 240.694 408.576 240.952C408.323 241.211 408.182 241.557 408.182 241.918C408.182 242.28 408.323 242.626 408.576 242.885C408.828 243.143 409.172 243.292 409.533 243.3H427.783C428.146 243.295 428.493 243.148 428.749 242.889C429.004 242.631 429.147 242.282 429.147 241.918C429.147 241.555 429.004 241.206 428.749 240.948C428.493 240.689 428.146 240.542 427.783 240.537Z" fill="#3F3D56"/>
<path d="M427.783 245.725H409.533C409.172 245.733 408.829 245.882 408.576 246.14C408.324 246.398 408.183 246.745 408.183 247.106C408.183 247.467 408.324 247.813 408.576 248.071C408.829 248.329 409.172 248.479 409.533 248.487H427.783C428.146 248.482 428.492 248.334 428.747 248.076C429.002 247.817 429.144 247.469 429.144 247.106C429.144 246.743 429.002 246.394 428.747 246.136C428.492 245.878 428.146 245.73 427.783 245.725Z" fill="#3F3D56"/>
<path d="M867.757 552.038C868.308 553.641 869.352 555.029 870.741 556.002C872.13 556.974 873.791 557.482 875.486 557.452L908.601 556.599C910.308 556.566 911.959 555.981 913.307 554.932C914.654 553.883 915.626 552.426 916.077 550.778L920.763 500.669C922.425 501.422 924.236 501.794 926.06 501.758C927.646 501.718 929.208 501.366 930.657 500.723C932.107 500.079 933.415 499.157 934.508 498.007C935.601 496.858 936.457 495.505 937.027 494.025C937.597 492.545 937.87 490.967 937.83 489.382C937.79 487.796 937.439 486.234 936.795 484.785C936.152 483.335 935.229 482.027 934.08 480.934C932.931 479.841 931.577 478.985 930.097 478.415C928.617 477.845 927.04 477.572 925.454 477.612C924.725 477.61 923.997 477.685 923.284 477.838C922.508 476.998 921.565 476.331 920.516 475.878C919.467 475.425 918.334 475.197 917.191 475.209L866.253 476.524C865.831 476.54 865.41 476.592 864.997 476.68C863.88 476.889 862.82 477.334 861.89 477.986C860.959 478.638 860.179 479.482 859.602 480.46C859.025 481.439 858.664 482.53 858.544 483.66C858.423 484.79 858.547 485.933 858.905 487.011L867.757 552.038ZM921.724 497.267L925.058 485.326C925.438 483.947 925.447 482.492 925.084 481.108C925.246 481.107 925.388 481.031 925.55 481.03C927.837 480.983 930.048 481.844 931.701 483.425C933.353 485.006 934.311 487.178 934.365 489.464C934.418 491.751 933.563 493.965 931.986 495.621C930.41 497.278 928.241 498.242 925.955 498.302C924.477 498.348 923.014 497.99 921.724 497.267Z" fill="#2C1943"/>
<path d="M864.997 476.68C866.082 482.885 878.283 487.247 892.954 486.489C906.445 485.868 917.476 481.13 919.497 475.516C918.749 475.295 917.971 475.191 917.191 475.209L866.253 476.524C865.831 476.54 865.41 476.592 864.997 476.68Z" fill="#3F3D56"/>
<path d="M895.643 524.502C895.71 524.485 895.774 524.457 895.831 524.419L903.023 519.712C903.11 519.656 903.181 519.578 903.231 519.487C903.28 519.396 903.306 519.294 903.306 519.19C903.306 519.086 903.28 518.984 903.231 518.893C903.181 518.801 903.11 518.724 903.023 518.667L895.549 513.771C895.48 513.726 895.403 513.694 895.322 513.679C895.241 513.663 895.158 513.664 895.078 513.68C894.997 513.697 894.921 513.729 894.853 513.775C894.785 513.822 894.726 513.881 894.681 513.95C894.636 514.018 894.605 514.096 894.59 514.176C894.575 514.257 894.576 514.34 894.592 514.421C894.609 514.501 894.642 514.578 894.689 514.645C894.735 514.713 894.795 514.771 894.864 514.816L901.54 519.189L895.147 523.374C895.023 523.455 894.932 523.577 894.89 523.719C894.848 523.86 894.858 524.012 894.917 524.148C894.976 524.283 895.082 524.393 895.215 524.458C895.348 524.523 895.499 524.539 895.643 524.502Z" fill="#BD3DC2"/>
<path d="M884.284 525.026C884.405 524.996 884.513 524.93 884.596 524.837C884.679 524.744 884.733 524.629 884.75 524.505C884.767 524.382 884.746 524.256 884.691 524.145C884.637 524.033 884.55 523.94 884.442 523.878L877.813 520.078L884.22 515.319C884.286 515.27 884.341 515.208 884.383 515.138C884.425 515.068 884.453 514.99 884.465 514.909C884.477 514.827 884.473 514.745 884.453 514.665C884.433 514.586 884.397 514.511 884.349 514.445C884.3 514.379 884.238 514.324 884.168 514.281C884.097 514.239 884.019 514.211 883.938 514.2C883.857 514.188 883.774 514.192 883.695 514.212C883.615 514.232 883.541 514.267 883.475 514.316L876.301 519.644C876.218 519.706 876.151 519.788 876.108 519.882C876.064 519.976 876.044 520.079 876.05 520.183C876.056 520.286 876.088 520.387 876.143 520.475C876.197 520.563 876.273 520.636 876.363 520.688L883.82 524.962C883.96 525.043 884.127 525.066 884.284 525.026Z" fill="#BD3DC2"/>
<path d="M894.927 528.627C894.988 528.612 895.045 528.588 895.098 528.555C895.168 528.513 895.23 528.456 895.278 528.39C895.327 528.324 895.362 528.249 895.381 528.169C895.401 528.089 895.404 528.006 895.392 527.925C895.379 527.844 895.35 527.766 895.308 527.696L885.113 510.936C885.027 510.794 884.888 510.693 884.727 510.654C884.566 510.615 884.396 510.642 884.255 510.728C884.113 510.814 884.012 510.953 883.972 511.114C883.933 511.275 883.959 511.445 884.045 511.586L894.24 528.347C894.309 528.461 894.414 528.55 894.537 528.6C894.661 528.651 894.798 528.66 894.927 528.627Z" fill="#BD3DC2"/>
<path d="M321.812 326.695H266.573C264.32 326.695 262.493 328.522 262.493 330.775V336.172C262.493 338.425 264.32 340.252 266.573 340.252H321.812C324.065 340.252 325.892 338.425 325.892 336.172V330.775C325.892 328.522 324.065 326.695 321.812 326.695Z" fill="#2C1943"/>
<path d="M354.01 353.809H234.375C232.122 353.809 230.295 355.636 230.295 357.89V363.286C230.295 365.54 232.122 367.366 234.375 367.366H354.01C356.263 367.366 358.09 365.54 358.09 363.286V357.89C358.09 355.636 356.263 353.809 354.01 353.809Z" fill="#E6E6E6"/>
<path d="M354.01 380.924H234.375C232.122 380.924 230.295 382.75 230.295 385.004V390.401C230.295 392.654 232.122 394.481 234.375 394.481H354.01C356.263 394.481 358.09 392.654 358.09 390.401V385.004C358.09 382.75 356.263 380.924 354.01 380.924Z" fill="#E6E6E6"/>
<path d="M409.283 567.728L399.8 588.02L393.327 601.88L382.19 660.188L376.614 666.105L371.837 645.156L321.84 656.257C320.2 647.145 321.401 656.565 320.389 646.57C320.674 646.284 320.973 645.999 321.273 645.714C322.071 644.972 322.742 644.274 322.727 643.604C322.157 609.124 323.868 550.446 338.156 514.896C340.394 509.092 343.344 503.589 346.94 498.512C347.225 498.127 347.496 497.742 347.767 497.357C354.355 488.131 358.519 479.048 364.422 472.588V472.574C364.459 472.544 364.492 472.511 364.522 472.474C364.544 472.464 364.563 472.449 364.579 472.431L405.133 450.928L406.873 499.81L408.114 534.945L409.283 567.728Z" fill="#3F3D56"/>
<path d="M555.514 573.492L567.359 598.835L571.493 607.661L582.627 665.963L588.184 671.867L592.972 650.923L595.222 650.461L635.795 642.058L647.621 679.616C650.286 675.175 651.336 669.95 650.593 664.824C649.851 659.698 647.36 654.986 643.544 651.484C642.737 650.753 642.064 650.042 642.083 649.369C642.756 608.815 640.275 534.764 617.874 504.287C610.759 494.614 606.49 484.981 600.279 478.251C600.26 478.231 600.26 478.212 600.241 478.212L585.127 453.465L584.204 451.945L583.165 451.426L555.514 573.492Z" fill="#3F3D56"/>
<path d="M483.758 390.36C514.519 390.36 539.456 365.423 539.456 334.662C539.456 303.901 514.519 278.964 483.758 278.964C452.997 278.964 428.06 303.901 428.06 334.662C428.06 365.423 452.997 390.36 483.758 390.36Z" fill="#EDB989"/>
<path d="M457.82 373.396C457.82 373.396 462.33 417.455 445.792 420.98C429.254 424.505 460.827 484.426 460.827 484.426L536 495L517.958 424.505C517.958 424.505 505.931 419.218 513.448 383.97C520.965 348.722 457.82 373.396 457.82 373.396Z" fill="#EDB989"/>
<path d="M364.151 471.719L364.422 472.574L364.437 472.603L372.593 497.4L381.976 525.976L399.629 579.678L399.8 588.02V588.048L401.112 655.154L397.476 664.252L401.568 679.167C401.568 679.167 399.686 656.621 389.59 669.569C383.872 676.927 377.185 684.456 371.695 691.514C379.694 694.751 387.822 697.679 396.079 700.298C397.861 700.868 399.658 701.41 401.454 701.952C401.839 702.066 402.224 702.18 402.61 702.294C429.978 710.388 458.272 714.936 486.798 715.827C488.281 715.87 489.736 715.898 491.147 715.926C491.646 715.941 492.131 715.955 492.616 715.955C494.213 715.969 495.796 715.983 497.393 715.983C500.616 715.983 503.824 715.936 507.018 715.841C530.66 715.175 554.163 711.996 577.133 706.358C576.976 696.876 576.548 685.796 575.935 673.961C575.649 668.157 569.247 661.868 568.862 655.794C568.591 651.231 574.338 646.939 574.038 642.304C572.099 613.771 569.675 624.724 567.878 604.518C567.693 602.536 567.522 600.64 567.365 598.829C566.21 585.852 565.411 577.739 565.411 577.739L573.083 529.384L585.132 453.466L584.205 451.941L583.164 451.427L519.609 419.971L516.159 411.13C515.153 408.583 513.409 406.395 511.15 404.847C508.89 403.299 506.22 402.463 503.482 402.446L461.616 402.274C459.443 402.265 457.299 402.773 455.362 403.758C453.425 404.742 451.751 406.174 450.479 407.936L439.143 423.635L364.151 471.719Z" fill="#3F3D56"/>
<path d="M559.04 295.757C558.609 295.296 558.088 294.927 557.51 294.671C556.933 294.415 556.309 294.279 555.678 294.27L556.515 291.945C556.789 291.212 556.862 290.421 556.729 289.65C556.596 288.88 556.26 288.159 555.756 287.561C555.253 286.964 554.599 286.51 553.863 286.248C553.126 285.986 552.333 285.925 551.565 286.07L548.515 286.657L548.803 284.62C548.913 283.861 548.824 283.086 548.544 282.373C548.264 281.659 547.803 281.03 547.207 280.548C546.61 280.066 545.898 279.748 545.142 279.625C544.385 279.501 543.609 279.577 542.89 279.845C542.237 280.102 541.533 280.21 540.833 280.16C540.132 280.11 539.451 279.904 538.84 279.557C538.227 279.221 537.694 278.755 537.28 278.191C536.865 277.628 536.579 276.98 536.44 276.295L535.378 271.17L535.265 270.895C530.09 262.27 520.14 255.995 507.965 253.695C497.128 251.632 486.015 252.682 475.303 253.67C471.053 254.07 466.253 254.52 462.253 256.97C458.853 259.07 455.978 263.27 456.565 267.507C446.003 264.27 434.678 270.732 429.065 278.882C422.415 288.582 421.328 300.732 421.153 310.232C420.678 332.707 425.315 351.095 434.903 364.895C435.603 365.895 435.778 367.982 437.165 368.682L436.878 368.22C438.428 368.995 440.003 370.245 439.415 371.582C437.728 375.432 448.94 383.945 456.84 386.757C471.253 391.895 490.415 391.457 503.89 389.607L504.365 386.42C509.228 385.757 512.653 384.495 513.615 382.52C515.315 381.07 516.765 379.77 518.028 378.57L518.04 378.557C518.065 378.532 518.115 378.495 518.14 378.47C524.228 372.632 525.64 369.307 526.278 364.245C526.89 359.282 525.803 354.245 524.69 349.707C548.115 353.332 515.465 324.757 537.29 319.232C537.541 319.155 537.795 319.093 538.053 319.045C538.69 318.895 539.328 318.745 539.94 318.57C542.893 317.768 545.72 316.561 548.34 314.982C554.44 311.27 556.453 306.345 559.603 300.795C560.057 300.005 560.248 299.09 560.147 298.184C560.045 297.278 559.658 296.428 559.04 295.757Z" fill="#2F2E41"/>
<path d="M680.753 577.457C680.74 579.645 680.715 582.707 680.615 586.495C680.603 587.02 680.59 587.557 680.578 588.107C680.415 595.07 680.253 600.907 679.99 607.395C679.978 607.845 679.965 608.282 679.94 608.732C679.59 617.782 679.04 628.32 678.09 645.007C676.328 675.832 673.253 649.245 670.165 660.057C670.015 660.595 669.853 661.232 669.703 661.982C669.235 664.703 668.446 667.359 667.353 669.895C665.715 670.87 664.028 671.807 662.365 672.745C657.628 675.382 652.815 677.92 647.965 680.332C645.24 681.682 642.503 683.007 639.753 684.282C639.315 684.482 638.89 684.682 638.465 684.87C624.383 691.383 609.87 696.921 595.028 701.445C592.128 702.32 589.24 703.17 586.315 703.957C583.265 704.807 580.215 705.607 577.128 706.357C554.159 711.996 530.656 715.176 507.015 715.845C503.828 715.945 500.615 715.982 497.39 715.982C495.79 715.982 494.215 715.97 492.615 715.957C492.128 715.957 491.64 715.945 491.153 715.932C489.74 715.895 488.278 715.87 486.803 715.832C458.276 714.942 429.982 710.393 402.615 702.295L401.453 701.957C399.653 701.407 397.865 700.87 396.078 700.295C387.828 697.682 379.698 694.757 371.69 691.52C365.578 689.057 359.536 686.416 353.565 683.595C353.511 683.58 353.46 683.554 353.415 683.52C352.165 682.945 350.903 682.345 349.653 681.732C349.49 681.645 349.315 681.557 349.14 681.47C344.478 679.195 339.865 676.811 335.303 674.32C331.465 665.507 326.065 663.82 322.715 656.07C321.74 653.767 321.036 651.359 320.615 648.895C320.615 648.87 320.603 648.845 320.603 648.807C320.953 653.457 319.115 640.557 320.59 648.757C320.578 648.607 320.565 648.445 320.553 648.257C320.515 647.807 320.465 647.257 320.39 646.57C316.103 604.707 316.378 556.832 314.515 517.382C314.39 514.832 314.261 512.39 314.128 510.057C314.09 509.282 314.04 508.52 313.99 507.77C314.078 507.545 314.178 507.307 314.29 507.082C314.314 507.017 314.343 506.955 314.378 506.895C314.415 506.817 314.456 506.742 314.503 506.67C314.528 506.632 314.565 506.582 314.59 506.545C314.609 506.502 314.629 506.46 314.653 506.42C314.765 506.245 314.89 506.057 315.028 505.882C315.09 505.807 315.14 505.745 315.203 505.682C315.246 505.618 315.296 505.56 315.353 505.507C315.391 505.447 315.437 505.392 315.49 505.345C315.54 505.295 315.59 505.232 315.653 505.17C315.679 505.13 315.713 505.096 315.753 505.07C315.852 504.956 315.96 504.852 316.078 504.757C316.524 504.347 317 503.971 317.503 503.632C317.678 503.52 317.865 503.407 318.04 503.282C319.3 502.529 320.626 501.893 322.003 501.382C322.478 501.207 322.953 501.045 323.465 500.87C323.653 500.82 323.828 500.757 324.015 500.695C324.29 500.607 324.565 500.52 324.853 500.457C326.278 500.032 327.815 499.67 329.478 499.332C329.678 499.295 329.89 499.257 330.103 499.207C330.403 499.145 330.715 499.095 331.028 499.045C331.453 498.97 331.89 498.895 332.328 498.82C336.04 498.232 340.253 497.795 344.903 497.507C345.34 497.482 345.778 497.457 346.215 497.432C346.728 497.407 347.24 497.382 347.765 497.357C348.203 497.332 348.653 497.32 349.103 497.307C349.54 497.282 349.99 497.27 350.453 497.257C351.715 497.22 353.015 497.182 354.34 497.157C358.115 497.082 362.09 497.107 366.265 497.195C368.203 497.245 370.178 497.295 372.203 497.382C372.34 497.382 372.465 497.395 372.59 497.395C374.353 497.457 376.128 497.532 377.953 497.632C379.228 497.695 380.515 497.757 381.803 497.832C383.015 497.907 384.24 497.982 385.478 498.07C386.44 498.12 387.403 498.195 388.378 498.257C389.203 498.32 390.028 498.382 390.853 498.432L391.978 498.507C392.59 498.557 393.203 498.595 393.828 498.657C395.203 498.77 396.578 498.882 397.978 498.995C399.365 499.12 400.778 499.245 402.19 499.37C403.603 499.495 405.028 499.632 406.453 499.77C406.603 499.782 406.74 499.795 406.878 499.807C408.178 499.945 409.478 500.07 410.79 500.207C411.09 500.232 411.403 500.257 411.703 500.295C412.954 500.42 414.23 500.568 415.493 500.702C415.88 500.744 416.266 500.784 416.654 500.827C417.644 500.934 418.619 501.028 419.615 501.145C420.928 501.295 422.265 501.432 423.565 501.607C424.578 501.72 425.59 501.832 426.603 501.957C428.19 502.145 429.803 502.345 431.415 502.557C432.028 502.632 432.64 502.707 433.253 502.795C437.853 503.37 442.503 504.007 447.228 504.67C454.39 505.682 461.665 506.782 468.99 507.97C476.328 509.157 483.707 510.411 491.128 511.732C493.003 512.07 494.878 512.407 496.765 512.757C497.615 512.92 498.465 513.082 499.315 513.245C500.765 513.507 502.215 513.782 503.665 514.057C505.115 514.332 506.565 514.607 508.015 514.895C509.74 515.232 511.478 515.57 513.203 515.907C524.565 518.157 535.865 520.557 546.89 523.07C548.703 523.482 550.515 523.907 552.315 524.32C555.915 525.157 559.482 526.007 563.015 526.87C563.99 527.095 564.953 527.332 565.915 527.57C568.315 528.17 570.715 528.77 573.078 529.382L573.49 529.495C575.228 529.92 576.928 530.357 578.628 530.807C582.64 531.857 586.586 532.92 590.465 533.995C593.04 534.707 595.586 535.428 598.103 536.157C601.865 537.245 605.553 538.345 609.14 539.457C610.028 539.732 610.915 540.007 611.79 540.27C614.415 541.082 617.002 541.907 619.515 542.732C621.515 543.382 623.465 544.045 625.39 544.707C627.315 545.37 629.203 546.032 631.053 546.695C632.24 547.12 633.415 547.57 634.59 547.995C636.277 548.62 637.94 549.245 639.565 549.87C640.065 550.057 640.553 550.257 641.04 550.445C641.353 550.582 641.653 550.695 641.953 550.82C642.54 551.057 643.14 551.282 643.715 551.52C644.303 551.745 644.877 551.982 645.452 552.232C646.015 552.457 646.59 552.695 647.14 552.932C647.703 553.157 648.253 553.395 648.803 553.645C649.265 553.832 649.715 554.032 650.153 554.232C651.04 554.62 651.928 555.007 652.79 555.407C653.215 555.607 653.64 555.795 654.065 555.995L655.04 556.445C655.178 556.52 655.315 556.582 655.452 556.645C655.765 556.795 656.09 556.957 656.403 557.107C657.127 557.445 657.84 557.807 658.54 558.145C659.478 558.62 660.39 559.095 661.265 559.557C662.153 560.032 663.015 560.507 663.84 560.97C663.978 561.045 664.103 561.12 664.24 561.195C664.428 561.295 664.615 561.407 664.803 561.507C665.44 561.87 666.053 562.245 666.665 562.607C667.865 563.345 669.002 564.07 670.065 564.795C670.302 564.957 670.527 565.12 670.765 565.27C671.552 565.832 672.303 566.382 673.003 566.945C673.003 566.957 673.003 566.957 673.015 566.957C673.253 567.132 673.478 567.32 673.703 567.495C673.89 567.67 674.09 567.82 674.277 567.995C674.927 568.557 675.527 569.094 676.077 569.645C676.262 569.814 676.437 569.994 676.603 570.182C676.675 570.242 676.742 570.309 676.803 570.382C677.053 570.632 677.277 570.882 677.49 571.132C677.523 571.166 677.552 571.204 677.578 571.245C677.878 571.595 678.153 571.945 678.415 572.295C678.54 572.47 678.678 572.645 678.79 572.82C678.94 573.032 679.09 573.257 679.215 573.47C679.327 573.645 679.427 573.832 679.527 574.007C679.793 574.458 680.019 574.93 680.203 575.42C680.343 575.751 680.456 576.094 680.54 576.445C680.635 576.777 680.706 577.115 680.753 577.457Z" fill="#2F2E41"/>
<path opacity="0.2" d="M680.752 577.457C680.74 579.645 680.715 582.707 680.615 586.495C680.603 587.02 680.577 587.557 680.565 588.107C680.44 593.42 680.253 599.982 679.99 607.395C679.978 607.845 679.965 608.282 679.94 608.732C679.59 617.782 679.04 628.32 678.09 645.007C676.327 675.832 673.252 649.245 670.165 660.057C661.59 654.782 652.19 649.257 642.14 643.582C640.327 642.557 638.498 641.528 636.652 640.495C616.552 629.282 594.102 617.532 570.665 605.895C569.74 605.432 568.803 604.97 567.878 604.52C514.19 577.982 455.59 552.17 408.115 534.945C398.953 531.62 390.203 528.62 381.978 525.982C364.653 520.445 349.678 516.57 338.153 514.895C326.153 513.145 317.865 513.77 314.515 517.382C314.39 514.832 314.261 512.391 314.128 510.057C314.077 509.282 314.027 508.52 313.978 507.77C314.055 507.564 314.155 507.368 314.252 507.17C314.266 507.141 314.276 507.111 314.29 507.082C314.314 507.017 314.343 506.955 314.378 506.895C314.414 506.817 314.456 506.742 314.503 506.67C314.543 506.581 314.594 506.497 314.653 506.42C314.765 506.245 314.89 506.057 315.028 505.882C315.129 505.751 315.237 505.626 315.353 505.507C315.391 505.447 315.437 505.392 315.49 505.345C315.54 505.295 315.59 505.232 315.653 505.17C315.679 505.13 315.713 505.097 315.753 505.07C315.851 504.956 315.96 504.852 316.078 504.757C316.524 504.347 317 503.971 317.503 503.632C317.677 503.52 317.865 503.407 318.04 503.282C319.3 502.529 320.626 501.893 322.003 501.382C322.478 501.207 322.953 501.045 323.465 500.87C323.653 500.82 323.828 500.757 324.015 500.695C324.29 500.607 324.565 500.52 324.853 500.457C326.278 500.032 327.815 499.67 329.478 499.332C329.978 499.232 330.503 499.132 331.028 499.045C331.453 498.97 331.89 498.895 332.328 498.82C336.04 498.232 340.253 497.795 344.903 497.507C345.34 497.482 345.778 497.457 346.215 497.432C346.728 497.407 347.24 497.382 347.765 497.357C348.203 497.332 348.653 497.32 349.103 497.307C349.54 497.282 349.99 497.27 350.453 497.257C351.715 497.22 353.015 497.182 354.34 497.157C358.115 497.095 362.09 497.12 366.265 497.207C368.203 497.245 370.178 497.307 372.203 497.395C372.328 497.395 372.465 497.407 372.59 497.407C374.353 497.457 376.14 497.545 377.953 497.632C379.228 497.695 380.515 497.757 381.802 497.832C383.015 497.907 384.24 497.982 385.478 498.07C386.44 498.12 387.402 498.195 388.377 498.257C389.202 498.32 390.027 498.382 390.852 498.432C391.84 498.507 392.827 498.582 393.827 498.657C395.202 498.77 396.578 498.882 397.978 498.995C399.365 499.12 400.777 499.245 402.19 499.37C403.602 499.495 405.027 499.632 406.452 499.77C406.602 499.782 406.74 499.795 406.877 499.807C408.177 499.945 409.477 500.07 410.79 500.207C418.065 500.945 425.552 501.807 433.252 502.795C437.852 503.382 442.511 504.011 447.227 504.682C454.39 505.695 461.665 506.795 468.99 507.97C476.328 509.157 483.707 510.411 491.127 511.732C493.002 512.07 494.877 512.407 496.765 512.757C499.065 513.182 501.365 513.616 503.665 514.057C505.115 514.332 506.565 514.607 508.015 514.895C509.74 515.232 511.477 515.57 513.202 515.907C524.565 518.157 535.865 520.557 546.89 523.07C548.702 523.482 550.515 523.907 552.315 524.32C555.915 525.157 559.482 526.007 563.015 526.87C563.99 527.107 564.952 527.345 565.915 527.582C568.327 528.182 570.715 528.782 573.077 529.382V529.395C573.215 529.42 573.352 529.457 573.49 529.495C575.215 529.932 576.927 530.37 578.627 530.82C582.64 531.87 586.586 532.928 590.465 533.995C593.04 534.72 595.59 535.432 598.102 536.157C601.865 537.257 605.552 538.357 609.14 539.457C610.027 539.732 610.915 540.007 611.79 540.27C614.415 541.095 616.99 541.916 619.515 542.732C621.515 543.382 623.465 544.045 625.39 544.707C627.315 545.37 629.202 546.032 631.052 546.695C632.252 547.12 633.427 547.557 634.59 547.982C636.29 548.607 637.94 549.232 639.565 549.87C640.065 550.057 640.552 550.257 641.04 550.445C641.952 550.795 642.84 551.157 643.715 551.52C644.302 551.745 644.877 551.982 645.452 552.232C646.015 552.457 646.59 552.695 647.14 552.932C647.702 553.157 648.252 553.395 648.802 553.645C649.265 553.832 649.715 554.032 650.152 554.232C651.04 554.62 651.927 555.007 652.79 555.407C653.215 555.607 653.64 555.795 654.065 555.995L655.04 556.445C655.177 556.52 655.315 556.582 655.452 556.645C656.515 557.145 657.54 557.645 658.54 558.145C659.477 558.62 660.39 559.095 661.265 559.557C662.302 560.107 663.29 560.645 664.24 561.195C664.427 561.295 664.615 561.407 664.802 561.507C665.44 561.87 666.052 562.245 666.665 562.607C667.865 563.345 669.002 564.07 670.065 564.795C671.115 565.52 672.09 566.232 673.002 566.945C673.002 566.957 673.002 566.957 673.015 566.957C673.452 567.307 673.877 567.657 674.277 567.995C674.927 568.557 675.527 569.095 676.077 569.645C676.262 569.814 676.437 569.994 676.602 570.182C676.675 570.242 676.742 570.309 676.802 570.382C677.065 570.67 677.327 570.957 677.578 571.245C677.878 571.595 678.152 571.945 678.415 572.295C678.54 572.47 678.677 572.645 678.79 572.82C678.94 573.032 679.09 573.257 679.215 573.47C679.328 573.645 679.428 573.832 679.528 574.007C679.793 574.458 680.019 574.93 680.202 575.42C680.339 575.753 680.452 576.095 680.54 576.445C680.635 576.777 680.706 577.115 680.752 577.457Z" fill="black"/>
</g>
<defs>
<clipPath id="clip0_14_74">
<rect width="983.525" height="715.322" fill="white" transform="translate(0.762695 0.661133)"/>
</clipPath>
</defs>
</svg>
