<svg width="1423" height="1340" viewBox="0 0 1423 1340" fill="none" xmlns="http://www.w3.org/2000/svg">
<g clip-path="url(#clip0_14_71)">
<rect x="244" y="28" width="600" height="600" fill="#2C1943"/>
<path d="M520.384 357V336.56H523.884V353.752H532.564V357H520.384ZM542.717 357.28C541.41 357.28 540.272 357.028 539.301 356.524C538.33 356.02 537.574 355.32 537.033 354.424C536.51 353.509 536.249 352.445 536.249 351.232V347.368C536.249 346.155 536.51 345.1 537.033 344.204C537.574 343.289 538.33 342.58 539.301 342.076C540.272 341.572 541.41 341.32 542.717 341.32C544.005 341.32 545.125 341.572 546.077 342.076C547.048 342.58 547.794 343.289 548.317 344.204C548.858 345.1 549.129 346.155 549.129 347.368V350.14H539.637V351.232C539.637 352.315 539.898 353.136 540.421 353.696C540.944 354.237 541.718 354.508 542.745 354.508C543.529 354.508 544.164 354.377 544.649 354.116C545.134 353.836 545.442 353.435 545.573 352.912H549.017C548.756 354.237 548.046 355.301 546.889 356.104C545.75 356.888 544.36 357.28 542.717 357.28ZM545.741 348.18V347.34C545.741 346.276 545.489 345.464 544.985 344.904C544.481 344.325 543.725 344.036 542.717 344.036C541.709 344.036 540.944 344.325 540.421 344.904C539.898 345.483 539.637 346.304 539.637 347.368V347.956L545.993 347.9L545.741 348.18ZM561.158 357C559.683 357 558.526 356.589 557.686 355.768C556.865 354.947 556.454 353.817 556.454 352.38V344.764H552.282V341.6H556.454V337.26H559.982V341.6H565.89V344.764H559.982V352.38C559.982 353.351 560.458 353.836 561.41 353.836H565.61V357H561.158ZM586.112 357V341.6H588.968V343.672H589.556L589.08 344.176C589.08 343.317 589.323 342.627 589.808 342.104C590.294 341.581 590.919 341.32 591.684 341.32C592.506 341.32 593.14 341.656 593.588 342.328C594.055 343 594.288 343.905 594.288 345.044L593.672 343.672H594.624L594.26 344.176C594.26 343.317 594.503 342.627 594.988 342.104C595.474 341.581 596.118 341.32 596.92 341.32C597.872 341.32 598.628 341.675 599.188 342.384C599.748 343.093 600.028 344.055 600.028 345.268V357H596.948V345.408C596.948 344.904 596.836 344.512 596.612 344.232C596.388 343.933 596.062 343.784 595.632 343.784C595.222 343.784 594.895 343.924 594.652 344.204C594.428 344.484 594.316 344.885 594.316 345.408V357H591.796V345.408C591.796 344.885 591.684 344.484 591.46 344.204C591.236 343.924 590.91 343.784 590.48 343.784C590.051 343.784 589.724 343.924 589.5 344.204C589.295 344.484 589.192 344.885 589.192 345.408V357H586.112ZM609.873 357.28C608.567 357.28 607.428 357.028 606.457 356.524C605.487 356.02 604.731 355.32 604.189 354.424C603.667 353.509 603.405 352.445 603.405 351.232V347.368C603.405 346.155 603.667 345.1 604.189 344.204C604.731 343.289 605.487 342.58 606.457 342.076C607.428 341.572 608.567 341.32 609.873 341.32C611.161 341.32 612.281 341.572 613.233 342.076C614.204 342.58 614.951 343.289 615.473 344.204C616.015 345.1 616.285 346.155 616.285 347.368V350.14H606.793V351.232C606.793 352.315 607.055 353.136 607.577 353.696C608.1 354.237 608.875 354.508 609.901 354.508C610.685 354.508 611.32 354.377 611.805 354.116C612.291 353.836 612.599 353.435 612.729 352.912H616.173C615.912 354.237 615.203 355.301 614.045 356.104C612.907 356.888 611.516 357.28 609.873 357.28ZM612.897 348.18V347.34C612.897 346.276 612.645 345.464 612.141 344.904C611.637 344.325 610.881 344.036 609.873 344.036C608.865 344.036 608.1 344.325 607.577 344.904C607.055 345.483 606.793 346.304 606.793 347.368V347.956L613.149 347.9L612.897 348.18ZM642.835 357.252C641.659 357.252 640.633 357.065 639.755 356.692C638.878 356.319 638.187 355.805 637.683 355.152C637.198 354.48 636.937 353.696 636.899 352.8H640.399C640.437 353.285 640.67 353.677 641.099 353.976C641.547 354.275 642.126 354.424 642.835 354.424H644.067C644.926 354.424 645.57 354.256 645.999 353.92C646.429 353.584 646.643 353.127 646.643 352.548C646.643 352.007 646.447 351.587 646.055 351.288C645.682 350.971 645.094 350.765 644.291 350.672L642.387 350.392C640.633 350.149 639.345 349.683 638.523 348.992C637.702 348.301 637.291 347.265 637.291 345.884C637.291 344.447 637.777 343.336 638.747 342.552C639.718 341.749 641.146 341.348 643.031 341.348H644.095C645.813 341.348 647.185 341.731 648.211 342.496C649.238 343.261 649.789 344.288 649.863 345.576H646.363C646.307 345.165 646.074 344.829 645.663 344.568C645.271 344.307 644.749 344.176 644.095 344.176H643.031C642.229 344.176 641.641 344.325 641.267 344.624C640.913 344.904 640.735 345.324 640.735 345.884C640.735 346.407 640.894 346.799 641.211 347.06C641.529 347.303 642.042 347.48 642.751 347.592L644.739 347.872C646.569 348.133 647.913 348.628 648.771 349.356C649.649 350.065 650.087 351.12 650.087 352.52C650.087 354.013 649.574 355.18 648.547 356.02C647.539 356.841 646.046 357.252 644.067 357.252H642.835ZM653.969 357V336.56H657.469V341.6L657.385 344.54H658.337L657.385 345.352C657.385 344.083 657.749 343.093 658.477 342.384C659.223 341.675 660.241 341.32 661.529 341.32C663.041 341.32 664.245 341.824 665.141 342.832C666.055 343.84 666.513 345.193 666.513 346.892V357H663.013V347.256C663.013 346.323 662.77 345.604 662.285 345.1C661.799 344.596 661.118 344.344 660.241 344.344C659.382 344.344 658.701 344.605 658.197 345.128C657.711 345.651 657.469 346.397 657.469 347.368V357H653.969ZM677.002 357.252C675.695 357.252 674.556 357.009 673.586 356.524C672.634 356.02 671.887 355.32 671.346 354.424C670.823 353.509 670.562 352.436 670.562 351.204V347.396C670.562 346.164 670.823 345.1 671.346 344.204C671.887 343.289 672.634 342.589 673.586 342.104C674.556 341.6 675.695 341.348 677.002 341.348C678.327 341.348 679.466 341.6 680.418 342.104C681.37 342.589 682.107 343.289 682.63 344.204C683.171 345.1 683.442 346.155 683.442 347.368V351.204C683.442 352.436 683.171 353.509 682.63 354.424C682.107 355.32 681.37 356.02 680.418 356.524C679.466 357.009 678.327 357.252 677.002 357.252ZM677.002 354.2C677.935 354.2 678.654 353.948 679.158 353.444C679.68 352.921 679.942 352.175 679.942 351.204V347.396C679.942 346.407 679.68 345.66 679.158 345.156C678.654 344.652 677.935 344.4 677.002 344.4C676.087 344.4 675.368 344.652 674.846 345.156C674.323 345.66 674.062 346.407 674.062 347.396V351.204C674.062 352.175 674.323 352.921 674.846 353.444C675.368 353.948 676.087 354.2 677.002 354.2ZM688.303 357L685.951 341.6H688.863L690.151 351.036C690.225 351.577 690.291 352.175 690.347 352.828C690.421 353.481 690.477 354.023 690.515 354.452C690.571 354.023 690.645 353.481 690.739 352.828C690.832 352.175 690.916 351.577 690.991 351.036L692.447 341.6H695.163L696.591 351.036C696.665 351.577 696.749 352.184 696.843 352.856C696.936 353.509 697.011 354.051 697.067 354.48C697.104 354.032 697.16 353.481 697.235 352.828C697.328 352.156 697.403 351.559 697.459 351.036L698.831 341.6H701.631L699.223 357H695.611L694.267 347.508C694.192 346.985 694.108 346.407 694.015 345.772C693.921 345.119 693.847 344.587 693.791 344.176C693.735 344.587 693.66 345.119 693.567 345.772C693.492 346.407 693.408 346.985 693.315 347.508L691.915 357H688.303ZM723.617 362.04L725.773 356.16L720.033 341.6H723.869L726.725 349.468C726.874 349.897 727.023 350.42 727.173 351.036C727.322 351.633 727.434 352.128 727.509 352.52C727.602 352.128 727.723 351.633 727.873 351.036C728.022 350.42 728.171 349.897 728.321 349.468L731.009 341.6H734.705L727.285 362.04H723.617ZM744.158 357.252C742.851 357.252 741.712 357.009 740.742 356.524C739.79 356.02 739.043 355.32 738.502 354.424C737.979 353.509 737.718 352.436 737.718 351.204V347.396C737.718 346.164 737.979 345.1 738.502 344.204C739.043 343.289 739.79 342.589 740.742 342.104C741.712 341.6 742.851 341.348 744.158 341.348C745.483 341.348 746.622 341.6 747.574 342.104C748.526 342.589 749.263 343.289 749.786 344.204C750.327 345.1 750.598 346.155 750.598 347.368V351.204C750.598 352.436 750.327 353.509 749.786 354.424C749.263 355.32 748.526 356.02 747.574 356.524C746.622 357.009 745.483 357.252 744.158 357.252ZM744.158 354.2C745.091 354.2 745.81 353.948 746.314 353.444C746.836 352.921 747.098 352.175 747.098 351.204V347.396C747.098 346.407 746.836 345.66 746.314 345.156C745.81 344.652 745.091 344.4 744.158 344.4C743.243 344.4 742.524 344.652 742.002 345.156C741.479 345.66 741.218 346.407 741.218 347.396V351.204C741.218 352.175 741.479 352.921 742.002 353.444C742.524 353.948 743.243 354.2 744.158 354.2ZM760.947 357.28C758.987 357.28 757.447 356.739 756.327 355.656C755.207 354.555 754.647 353.061 754.647 351.176V341.6H758.147V351.148C758.147 352.137 758.39 352.903 758.875 353.444C759.36 353.967 760.051 354.228 760.947 354.228C761.824 354.228 762.506 353.967 762.991 353.444C763.495 352.903 763.747 352.137 763.747 351.148V341.6H767.247V351.176C767.247 353.061 766.678 354.555 765.539 355.656C764.4 356.739 762.87 357.28 760.947 357.28ZM527.58 394C526.105 394 524.948 393.589 524.108 392.768C523.287 391.947 522.876 390.817 522.876 389.38V381.764H518.704V378.6H522.876V374.26H526.404V378.6H532.312V381.764H526.404V389.38C526.404 390.351 526.88 390.836 527.832 390.836H532.032V394H527.58ZM536.445 394V373.56H539.945V378.6L539.861 381.54H540.813L539.861 382.352C539.861 381.083 540.225 380.093 540.953 379.384C541.7 378.675 542.717 378.32 544.005 378.32C545.517 378.32 546.721 378.824 547.617 379.832C548.532 380.84 548.989 382.193 548.989 383.892V394H545.489V384.256C545.489 383.323 545.246 382.604 544.761 382.1C544.276 381.596 543.594 381.344 542.717 381.344C541.858 381.344 541.177 381.605 540.673 382.128C540.188 382.651 539.945 383.397 539.945 384.368V394H536.445ZM559.506 394.28C558.199 394.28 557.061 394.028 556.09 393.524C555.119 393.02 554.363 392.32 553.822 391.424C553.299 390.509 553.038 389.445 553.038 388.232V384.368C553.038 383.155 553.299 382.1 553.822 381.204C554.363 380.289 555.119 379.58 556.09 379.076C557.061 378.572 558.199 378.32 559.506 378.32C560.794 378.32 561.914 378.572 562.866 379.076C563.837 379.58 564.583 380.289 565.106 381.204C565.647 382.1 565.918 383.155 565.918 384.368V387.14H556.426V388.232C556.426 389.315 556.687 390.136 557.21 390.696C557.733 391.237 558.507 391.508 559.534 391.508C560.318 391.508 560.953 391.377 561.438 391.116C561.923 390.836 562.231 390.435 562.362 389.912H565.806C565.545 391.237 564.835 392.301 563.678 393.104C562.539 393.888 561.149 394.28 559.506 394.28ZM562.53 385.18V384.34C562.53 383.276 562.278 382.464 561.774 381.904C561.27 381.325 560.514 381.036 559.506 381.036C558.498 381.036 557.733 381.325 557.21 381.904C556.687 382.483 556.426 383.304 556.426 384.368V384.956L562.782 384.9L562.53 385.18ZM593.14 394.28C591.834 394.28 590.686 394.037 589.696 393.552C588.726 393.048 587.97 392.348 587.428 391.452C586.887 390.537 586.616 389.464 586.616 388.232V384.368C586.616 383.117 586.887 382.044 587.428 381.148C587.97 380.252 588.726 379.561 589.696 379.076C590.686 378.572 591.834 378.32 593.14 378.32C595.082 378.32 596.631 378.824 597.788 379.832C598.946 380.821 599.552 382.175 599.608 383.892H596.108C596.052 383.089 595.763 382.473 595.24 382.044C594.736 381.596 594.036 381.372 593.14 381.372C592.207 381.372 591.47 381.633 590.928 382.156C590.387 382.66 590.116 383.388 590.116 384.34V388.232C590.116 389.184 590.387 389.921 590.928 390.444C591.47 390.967 592.207 391.228 593.14 391.228C594.036 391.228 594.736 391.013 595.24 390.584C595.763 390.136 596.052 389.511 596.108 388.708H599.608C599.552 390.425 598.946 391.788 597.788 392.796C596.631 393.785 595.082 394.28 593.14 394.28ZM609.845 394.252C608.539 394.252 607.4 394.009 606.429 393.524C605.477 393.02 604.731 392.32 604.189 391.424C603.667 390.509 603.405 389.436 603.405 388.204V384.396C603.405 383.164 603.667 382.1 604.189 381.204C604.731 380.289 605.477 379.589 606.429 379.104C607.4 378.6 608.539 378.348 609.845 378.348C611.171 378.348 612.309 378.6 613.261 379.104C614.213 379.589 614.951 380.289 615.473 381.204C616.015 382.1 616.285 383.155 616.285 384.368V388.204C616.285 389.436 616.015 390.509 615.473 391.424C614.951 392.32 614.213 393.02 613.261 393.524C612.309 394.009 611.171 394.252 609.845 394.252ZM609.845 391.2C610.779 391.2 611.497 390.948 612.001 390.444C612.524 389.921 612.785 389.175 612.785 388.204V384.396C612.785 383.407 612.524 382.66 612.001 382.156C611.497 381.652 610.779 381.4 609.845 381.4C608.931 381.4 608.212 381.652 607.689 382.156C607.167 382.66 606.905 383.407 606.905 384.396V388.204C606.905 389.175 607.167 389.921 607.689 390.444C608.212 390.948 608.931 391.2 609.845 391.2ZM625.318 394.28C623.788 394.28 622.546 393.748 621.594 392.684C620.661 391.62 620.194 390.192 620.194 388.4V384.228C620.194 382.417 620.661 380.98 621.594 379.916C622.528 378.852 623.769 378.32 625.318 378.32C626.588 378.32 627.596 378.684 628.342 379.412C629.089 380.121 629.462 381.101 629.462 382.352L628.678 381.54H629.49L629.378 377.872V373.56H632.878V394H629.462V391.06H628.678L629.462 390.248C629.462 391.499 629.089 392.488 628.342 393.216C627.596 393.925 626.588 394.28 625.318 394.28ZM626.55 391.256C627.446 391.256 628.137 390.995 628.622 390.472C629.126 389.931 629.378 389.184 629.378 388.232V384.368C629.378 383.416 629.126 382.679 628.622 382.156C628.137 381.615 627.446 381.344 626.55 381.344C625.654 381.344 624.954 381.605 624.45 382.128C623.946 382.651 623.694 383.397 623.694 384.368V388.232C623.694 389.203 623.946 389.949 624.45 390.472C624.954 390.995 625.654 391.256 626.55 391.256ZM643.451 394.28C642.145 394.28 641.006 394.028 640.035 393.524C639.065 393.02 638.309 392.32 637.767 391.424C637.245 390.509 636.983 389.445 636.983 388.232V384.368C636.983 383.155 637.245 382.1 637.767 381.204C638.309 380.289 639.065 379.58 640.035 379.076C641.006 378.572 642.145 378.32 643.451 378.32C644.739 378.32 645.859 378.572 646.811 379.076C647.782 379.58 648.529 380.289 649.051 381.204C649.593 382.1 649.863 383.155 649.863 384.368V387.14H640.371V388.232C640.371 389.315 640.633 390.136 641.155 390.696C641.678 391.237 642.453 391.508 643.479 391.508C644.263 391.508 644.898 391.377 645.383 391.116C645.869 390.836 646.177 390.435 646.307 389.912H649.751C649.49 391.237 648.781 392.301 647.623 393.104C646.485 393.888 645.094 394.28 643.451 394.28ZM646.475 385.18V384.34C646.475 383.276 646.223 382.464 645.719 381.904C645.215 381.325 644.459 381.036 643.451 381.036C642.443 381.036 641.678 381.325 641.155 381.904C640.633 382.483 640.371 383.304 640.371 384.368V384.956L646.727 384.9L646.475 385.18ZM653.493 397.864V394.7H666.933V397.864H653.493Z" fill="#CCCCCC"/>
<path d="M538.83 318V262.74H521.64V252.3H567.36V262.74H550.17V318H538.83ZM578.305 318V252.3H599.095C603.475 252.3 607.255 253.11 610.435 254.73C613.675 256.35 616.195 258.63 617.995 261.57C619.795 264.45 620.695 267.87 620.695 271.83C620.695 276.15 619.585 279.96 617.365 283.26C615.205 286.56 612.265 288.9 608.545 290.28L621.595 318H608.995L597.565 291.9H589.555V318H578.305ZM589.555 282H599.095C602.275 282 604.765 281.13 606.565 279.39C608.365 277.65 609.265 275.25 609.265 272.19C609.265 269.07 608.365 266.64 606.565 264.9C604.765 263.1 602.275 262.2 599.095 262.2H589.555V282ZM652.61 318.9C648.11 318.9 644.21 318.15 640.91 316.65C637.61 315.15 635.06 313.02 633.26 310.26C631.52 307.44 630.62 304.14 630.56 300.36H641.81C641.81 303.06 642.77 305.19 644.69 306.75C646.67 308.25 649.34 309 652.7 309C655.94 309 658.46 308.25 660.26 306.75C662.12 305.25 663.05 303.18 663.05 300.54C663.05 298.32 662.39 296.4 661.07 294.78C659.81 293.1 657.98 291.96 655.58 291.36L648.02 289.29C642.86 287.97 638.87 285.6 636.05 282.18C633.29 278.76 631.91 274.62 631.91 269.76C631.91 266.04 632.75 262.8 634.43 260.04C636.11 257.28 638.48 255.15 641.54 253.65C644.66 252.15 648.32 251.4 652.52 251.4C658.88 251.4 663.92 253.05 667.64 256.35C671.36 259.59 673.25 263.97 673.31 269.49H662.06C662.06 266.91 661.22 264.9 659.54 263.46C657.86 261.96 655.49 261.21 652.43 261.21C649.49 261.21 647.21 261.9 645.59 263.28C643.97 264.66 643.16 266.61 643.16 269.13C643.16 271.41 643.76 273.36 644.96 274.98C646.22 276.54 648.02 277.65 650.36 278.31L658.19 280.47C663.41 281.79 667.4 284.16 670.16 287.58C672.92 290.94 674.3 295.11 674.3 300.09C674.3 303.81 673.4 307.11 671.6 309.99C669.8 312.81 667.28 315 664.04 316.56C660.8 318.12 656.99 318.9 652.61 318.9Z" fill="#CCCCCC"/>
<rect x="348.5" y="369" width="116.5" height="28" fill="#B4BAAB"/>
<rect x="338.5" y="220.5" width="136" height="148.5" rx="8" fill="#B4BAAB"/>
<rect x="359" y="239.5" width="95.5" height="70" rx="8" fill="#07040B"/>
<rect x="417" y="328.5" width="37.5" height="10" fill="#07040B"/>
<ellipse cx="365" cy="351.5" rx="6" ry="6" fill="#07040B"/>
<path d="M1032.65 760.036V1130.03L1094.54 1230.89L1099.25 1238.56H1343.44L1348.38 760.036H1032.65Z" fill="#B4BAAB"/>
<path opacity="0.1" d="M1032.65 760.036V1130.03L1094.54 1230.89L1098.34 760.036H1032.65Z" fill="black"/>
<path d="M443.132 750.168V1120.16L381.244 1221.02L376.534 1228.69H132.34L127.406 750.168H443.132Z" fill="#B4BAAB"/>
<path opacity="0.1" d="M443.132 750.168V1120.16L381.244 1221.02L377.446 750.168H443.132Z" fill="black"/>
<path d="M1422.38 742.77V764.968H95.3401V732.902L218.67 668.77H1313.85L1422.38 742.77Z" fill="#B4BAAB"/>
<path opacity="0.1" d="M1422.38 742.77V764.968H95.3401V732.902L1422.38 742.77Z" fill="black"/>
<path d="M285.27 853.766H226.07L201.404 836.5H312.402L285.27 853.766Z" fill="#3F3D56"/>
<path d="M285.27 925.298H226.07L201.404 908.032H312.402L285.27 925.298Z" fill="#3F3D56"/>
<path d="M285.27 1026.43H226.07L201.404 1009.16H312.402L285.27 1026.43Z" fill="#3F3D56"/>
<path d="M285.27 1127.56H226.07L201.404 1110.29H312.402L285.27 1127.56Z" fill="#3F3D56"/>
<path d="M1190.51 863.632H1249.71L1274.38 846.366H1163.38L1190.51 863.632Z" fill="#3F3D56"/>
<path d="M1190.51 935.164H1249.71L1274.38 917.898H1163.38L1190.51 935.164Z" fill="#3F3D56"/>
<path d="M1190.51 1036.3H1249.71L1274.38 1019.03H1163.38L1190.51 1036.3Z" fill="#3F3D56"/>
<path d="M1190.51 1137.43H1249.71L1274.38 1120.16H1163.38L1190.51 1137.43Z" fill="#3F3D56"/>
<path d="M1230.83 240.912H732.457C729.982 240.912 727.531 241.399 725.244 242.347C722.957 243.294 720.879 244.682 719.129 246.432C717.379 248.182 715.99 250.26 715.043 252.547C714.096 254.834 713.609 257.285 713.609 259.76V595.476C713.609 597.951 714.096 600.402 715.043 602.689C715.99 604.976 717.379 607.054 719.129 608.804C720.879 610.554 722.957 611.942 725.244 612.889C727.531 613.836 729.982 614.324 732.457 614.323H921.643L914.555 659.576C914.555 659.576 874.049 681.094 902.53 681.727C931.011 682.36 1065.19 681.727 1065.19 681.727C1065.19 681.727 1091.13 681.727 1050 658.943L1043.33 614.323H1230.83C1233.3 614.324 1235.75 613.836 1238.04 612.889C1240.33 611.942 1242.41 610.554 1244.16 608.804C1245.91 607.054 1247.29 604.976 1248.24 602.689C1249.19 600.402 1249.68 597.951 1249.68 595.476V259.76C1249.68 257.285 1249.19 254.834 1248.24 252.547C1247.29 250.26 1245.91 248.182 1244.16 246.432C1242.41 244.682 1240.33 243.294 1238.04 242.347C1235.75 241.399 1233.3 240.912 1230.83 240.912Z" fill="#3F3D56"/>
<path d="M1231.64 260.849H731.647V540.591H1231.64V260.849Z" fill="#282A36"/>
<path d="M981.643 255.153C983.39 255.153 984.807 253.736 984.807 251.988C984.807 250.241 983.39 248.824 981.643 248.824C979.895 248.824 978.478 250.241 978.478 251.988C978.478 253.736 979.895 255.153 981.643 255.153Z" fill="#F2F2F2"/>
<path d="M981.642 600.716C988.284 600.716 993.667 595.332 993.667 588.691C993.667 582.05 988.284 576.666 981.642 576.666C975.001 576.666 969.617 582.05 969.617 588.691C969.617 595.332 975.001 600.716 981.642 600.716Z" fill="#F2F2F2"/>
<path d="M962.904 715.904V722.234H622.404V717.17L622.872 715.904L631.264 693.12H955.942L962.904 715.904Z" fill="#3F3D56"/>
<path d="M1093.94 709.708C1093.32 712.36 1090.98 715.157 1085.69 717.803C1066.7 727.296 1028.09 715.271 1028.09 715.271C1028.09 715.271 998.346 710.208 998.346 696.917C999.181 696.345 1000.05 695.827 1000.95 695.366C1008.94 691.143 1035.4 680.722 1082.33 695.808C1085.79 696.893 1088.88 698.917 1091.26 701.654C1092.31 702.688 1093.1 703.958 1093.57 705.358C1094.03 706.758 1094.16 708.249 1093.94 709.708Z" fill="#3F3D56"/>
<path opacity="0.1" d="M1093.94 709.708C1070.7 718.613 1049.98 719.277 1028.73 704.512C1020.69 698.568 1010.95 695.363 1000.95 695.366C1008.94 691.143 1035.4 680.722 1082.33 695.808C1085.79 696.893 1088.88 698.917 1091.26 701.654C1092.31 702.688 1093.1 703.958 1093.57 705.358C1094.03 706.758 1094.16 708.249 1093.94 709.708Z" fill="black"/>
<path d="M1064.8 704.512C1069.34 704.512 1073.03 703.379 1073.03 701.98C1073.03 700.582 1069.34 699.449 1064.8 699.449C1060.26 699.449 1056.57 700.582 1056.57 701.98C1056.57 703.379 1060.26 704.512 1064.8 704.512Z" fill="#F2F2F2"/>
<path opacity="0.1" d="M962.904 715.904V722.234H622.404V717.17L622.872 715.904H962.904Z" fill="black"/>
<path d="M189.323 0.000377928C185.867 -0.28335 182.407 0.489659 179.401 2.21698C176.449 4.23858 174.588 7.78021 172.689 11.0759C165.427 23.8271 155.597 34.9314 143.82 43.6852C135.242 49.9692 124.337 57.8045 125.804 69.3906C126.579 73.2168 127.992 76.8851 129.986 80.2416C137.899 96.2156 159.493 108.56 157.369 126.788C165.231 113.626 154.715 107.118 162.577 93.956C166.321 87.688 172.825 80.6127 178.478 84.549C180.371 85.867 181.613 88.2309 183.584 89.3873C188.287 92.1467 193.289 86.8713 197.452 83.1346C211.806 70.2494 232.218 73.625 250.08 77.6398C258.512 79.5351 267.774 82.0218 272.759 90.0812C279.313 100.678 266.532 112.122 263.303 124.102C263.039 125.123 263.027 126.192 263.267 127.219C263.506 128.246 263.991 129.199 264.68 129.998C265.368 130.796 266.24 131.416 267.22 131.804C268.201 132.192 269.26 132.337 270.309 132.226C275.668 131.698 282.017 131.264 282.334 128.913C289.077 129.153 297.34 128.389 300.229 121.368C301.112 118.589 301.579 115.696 301.614 112.781C302.674 100.987 307.68 90.2268 310.996 79.0013C314.312 67.7758 315.754 54.6203 310.158 44.6677C308.161 41.3563 305.691 38.3543 302.826 35.7566C271.068 5.0231 229.313 -0.0452421 189.323 0.000377928Z" fill="#2F2E41"/>
<path d="M164.276 149.81C164.276 149.81 171.182 207.367 145.857 211.972C120.532 216.576 168.88 294.854 168.88 294.854L283.994 308.667L256.366 216.576C256.366 216.576 237.948 209.669 249.46 163.624C260.971 117.579 164.276 149.81 164.276 149.81Z" fill="#EDB989"/>
<path d="M94.0562 1138.64L103.266 1265.26H151.612L137.8 1138.64H94.0562Z" fill="#EDB989"/>
<path d="M448.606 899.2L455.512 1005.1L508.466 982.082L487.744 894.596L448.606 899.2Z" fill="#EDB989"/>
<path d="M59.522 655.159C59.522 655.159 61.8242 788.691 75.6379 832.434C89.4517 876.177 87.1493 878.479 84.847 885.386C82.5448 892.293 80.2425 887.689 80.2425 899.2C80.2425 910.711 75.638 1092.59 80.2425 1108.71C84.847 1124.82 66.4289 1152.45 80.2425 1154.75C94.0561 1157.05 158.52 1154.75 160.822 1140.94C163.124 1127.12 142.404 1122.52 151.613 1113.31C160.822 1104.1 174.636 915.316 174.636 915.316L206.868 784.086L266.727 715.018H393.351L432.49 866.968C432.49 866.968 416.374 910.711 427.886 910.711C439.397 910.711 508.465 924.525 508.465 873.875C508.465 823.225 485.442 673.577 480.838 668.973C476.233 664.368 483.14 648.252 476.233 641.346C469.327 634.439 388.747 586.091 358.817 576.882C328.888 567.673 286.902 556.712 286.902 556.712L59.522 655.159Z" fill="#2F2E41"/>
<path d="M508.465 963.664C508.465 963.664 473.931 952.152 457.815 986.686C441.699 1021.22 448.606 1030.43 448.606 1030.43C448.606 1030.43 501.558 1048.85 510.767 1039.64C514.774 1035.63 527.497 1034.24 540.593 1033.95C560.539 1033.5 565.845 1005.28 547.008 998.708C546.446 998.512 545.877 998.342 545.301 998.198C526.883 993.593 508.465 963.664 508.465 963.664Z" fill="#2F2E41"/>
<path d="M216.076 187.798C254.222 187.798 285.145 156.875 285.145 118.73C285.145 80.5845 254.222 49.6616 216.076 49.6616C177.931 49.6616 147.008 80.5845 147.008 118.73C147.008 156.875 177.931 187.798 216.076 187.798Z" fill="#EDB989"/>
<path d="M126.288 240.75C126.288 240.75 239.099 263.773 266.727 226.936C294.354 190.1 305.865 330.539 305.865 330.539L319.679 477.884L298.959 558.464C298.959 558.464 190.752 645.95 156.218 652.857C121.684 659.764 68.7312 664.368 68.7312 664.368C68.7312 664.368 84.8472 408.816 84.8472 404.211C84.8472 399.607 126.288 240.75 126.288 240.75Z" fill="#2C1943"/>
<path d="M160.597 197.572C160.597 197.572 135.497 183.193 128.59 197.007C121.683 210.821 57.2198 245.355 50.3129 245.355C43.4061 245.355 64.1266 436.443 54.9175 459.466C45.7084 482.489 1.96522 650.555 27.2902 664.368C52.6152 678.182 34.197 650.555 59.522 685.089C84.847 719.623 209.17 719.623 216.077 705.809C222.983 691.996 160.822 588.393 172.333 491.698C183.845 395.002 202.263 261.471 186.147 243.052C170.031 224.634 160.597 197.572 160.597 197.572Z" fill="#2F2E41"/>
<path d="M243.704 213.123L246.911 202.087C246.911 202.087 342.702 233.843 347.306 254.564C351.911 275.284 349.608 420.327 333.493 431.839C317.377 443.35 294.354 461.768 310.47 489.396C326.586 517.023 345.004 546.952 358.818 549.255C372.631 551.557 397.956 567.673 391.049 583.789C384.143 599.905 301.261 569.975 301.261 569.975C301.261 569.975 246.006 528.534 248.308 464.071C250.611 399.607 243.704 213.123 243.704 213.123Z" fill="#2F2E41"/>
<path d="M324.283 484.791L269.029 588.393C269.029 588.393 188.449 671.275 234.495 680.484C280.54 689.693 305.865 604.509 305.865 604.509L365.724 519.325L324.283 484.791Z" fill="#EDB989"/>
<path d="M192.688 18.0719C189.904 17.8656 187.115 18.4065 184.61 19.6386C182.345 21.2927 180.479 23.432 179.147 25.9C173.006 35.1371 165.001 42.9879 155.646 48.948C148.664 53.3896 139.786 58.9275 140.981 67.1164C141.629 69.862 142.783 72.4629 144.384 74.7858C150.848 86.1903 153.422 99.3898 151.715 112.387L170.915 84.4792C173.963 80.049 179.257 75.0482 183.859 77.8304C185.4 78.7619 186.412 80.4327 188.016 81.2501C191.844 83.2004 195.916 79.4718 199.305 76.8307C210.989 67.7235 227.606 70.1094 242.146 72.947C249.01 74.2866 256.55 76.0441 260.608 81.7405C267.351 91.2067 260.31 104.885 264.246 115.82C265.347 115.049 266.283 114.065 266.997 112.925C267.711 111.785 268.189 110.514 268.403 109.186C273.892 109.356 280.618 108.816 282.97 103.853C283.685 101.909 284.066 99.8566 284.097 97.7846C284.96 89.4484 289.035 81.8433 291.735 73.9092C294.434 65.9752 295.608 56.6769 291.052 49.6425C289.386 47.259 287.374 45.1364 285.084 43.3441C259.231 21.6219 225.241 18.0397 192.688 18.0719Z" fill="#2F2E41"/>
<path d="M324.283 245.355L345.734 251.048C345.734 251.048 395.654 378.886 384.143 466.373C372.631 553.859 365.724 535.441 365.724 535.441C365.724 535.441 347.306 494 305.865 503.209L324.283 245.355Z" fill="#2F2E41"/>
<path d="M97.2459 1248.53C91.694 1256.07 92.8072 1266.86 87.8893 1274.83C83.6264 1281.74 75.5926 1285.36 70.2605 1291.49C68.5591 1293.52 67.0424 1295.7 65.7282 1298.01C60.782 1306.29 56.7616 1316.91 61.633 1325.24C65.5517 1331.94 73.7887 1334.56 81.343 1336.34C90.8911 1338.6 100.812 1340.4 110.47 1338.68C120.128 1336.96 129.568 1331.04 133.011 1321.85C133.688 1319.54 134.493 1317.27 135.422 1315.05C140.657 1304.75 157.077 1304.64 162.434 1294.39C166.183 1287.23 162.737 1278.56 159.292 1271.24L148.77 1248.89C145.278 1241.47 131.122 1245.74 123.743 1243.96C114.118 1241.64 104.17 1239.09 97.2459 1248.53Z" fill="#2F2E41"/>
<path d="M20.3833 530.836L117.079 680.484C117.079 680.484 176.938 756.459 195.356 721.925C213.774 687.391 130.892 629.834 130.892 629.834L68.731 514.721L20.3833 530.836Z" fill="#EDB989"/>
<path d="M68.731 249.959L50.3129 245.355C50.3129 245.355 13.4765 256.866 4.26745 305.214C-4.94163 353.561 1.96517 546.952 13.4765 549.255C24.9879 551.557 70.331 515.581 77.589 523.209C84.847 530.836 61.8242 491.698 68.731 470.977C75.6377 450.257 68.731 249.959 68.731 249.959Z" fill="#2F2E41"/>
</g>
<defs>
<clipPath id="clip0_14_71">
<rect width="1422.38" height="1339.37" fill="white"/>
</clipPath>
</defs>
</svg>
